<svg width="395" height="403" viewBox="0 0 395 403" fill="none" xmlns="http://www.w3.org/2000/svg">
<circle cx="197" cy="205" r="197" fill="white"/>
<path d="M59.5075 291.519C56.6186 310.737 53.5 339 53.5 339C53.5 339 60.8294 348.303 65.5 352C70.4045 355.882 78 362 78 362L95 373.5C95 373.5 106.43 380.679 112.596 383.302C119.328 386.166 125.5 388.251 125.5 388.251H142.647L157.171 391.401C157.171 391.401 168.719 393.396 176.203 394.1C184.188 394.852 196.737 395 196.737 395L213.265 394.55L231.295 392.75C231.295 392.75 240.202 391.319 245.819 390.051C254.997 387.979 268.858 383.302 268.858 383.302L285.5 381C285.5 381 300.234 373.117 306.5 369.5C315.32 364.409 327 353 327 353C327 353 339.544 341.823 346.988 333.811C349.846 330.735 354 325.713 354 325.713C354 325.713 353.694 324.89 353.499 324.363C351.686 319.459 348.992 308.616 348.992 308.616C348.992 308.616 342.73 283.898 335.97 266.774C323.842 236.052 319.924 217.958 304.417 188.488C292.336 165.529 283.382 147.996 266.353 127.299C257.146 116.108 248.251 110.132 232.797 111.102C227.49 111.436 224.34 112.246 219.776 114.702C211.678 119.058 207.971 124.607 202.246 131.349C197.112 137.394 190.727 146.196 190.727 146.196L181.211 134.498C181.211 134.498 169.081 115.868 154.667 113.352C149.291 112.413 147.011 112.37 141.645 113.352C125.346 116.333 120.61 124.15 112.596 136.041C98.6961 156.669 83.5477 200.636 83.5477 200.636C70.5099 235.185 64.9423 255.367 59.5075 291.519Z" fill="url(#paint0_linear)"/>
<path d="M163.942 179.26C177.645 183.863 193.555 200.583 193.555 200.583C193.555 200.583 204.224 185.016 214.636 179.26C226.213 172.861 234.984 170.828 248.264 172.627C261.72 174.45 269.002 179.447 278.881 188.263C294.068 201.816 303.475 238.015 303.475 238.015C303.475 238.015 306.792 260.49 306.988 277.343C307.199 295.476 304.562 311.297 300.997 329.117C296.198 353.107 285 381.5 285 381.5C285 381.5 274.325 387.098 267 389.5C258.274 392.361 251.756 395.309 242.743 397.221C231.95 399.51 215.5 401.5 215.5 401.5C215.5 401.5 194.086 403.04 181 402C171.526 401.247 156.5 398 156.5 398C156.5 398 140.38 394.136 130.314 390.587C126.938 389.397 121.782 387.27 121.782 387.27C121.782 387.27 99.4811 349.758 93.1725 323.304C87.9489 301.4 87.1986 288.38 88.6552 265.971C89.4549 253.668 93.1725 234.698 93.1725 234.698C93.1725 234.698 101.485 195.503 121.782 183.525C128.942 179.299 133.471 176.866 141.858 175.944C150.532 174.989 155.715 176.497 163.942 179.26Z" fill="#E9E9E9"/>
<path d="M179 319C179 319 190.065 323.547 197.5 323.5C204.746 323.454 215.5 319 215.5 319" stroke="#575757" stroke-width="6"/>
<circle cx="250" cy="254" r="38" fill="white" fill-opacity="0.41" stroke="black" stroke-width="4"/>
<circle cx="142" cy="254" r="38" fill="white" fill-opacity="0.41" stroke="black" stroke-width="4"/>
<path d="M179.5 250C184.5 248 187.016 245.789 193.5 245.5C199.433 245.235 206.474 246.325 212 248.5" stroke="black" stroke-width="4"/>
<path fill-rule="evenodd" clip-rule="evenodd" d="M137.5 265C142.194 265 146 261.194 146 256.5C146 251.806 142.194 248 137.5 248C132.806 248 129 251.806 129 256.5C129 261.194 132.806 265 137.5 265ZM254.5 265C259.194 265 263 261.194 263 256.5C263 251.806 259.194 248 254.5 248C249.806 248 246 251.806 246 256.5C246 261.194 249.806 265 254.5 265Z" fill="#3D3D3D"/>
<path fill-rule="evenodd" clip-rule="evenodd" d="M137.5 265C142.194 265 146 261.194 146 256.5C146 251.806 142.194 248 137.5 248C132.806 248 129 251.806 129 256.5C129 261.194 132.806 265 137.5 265ZM254.5 265C259.194 265 263 261.194 263 256.5C263 251.806 259.194 248 254.5 248C249.806 248 246 251.806 246 256.5C246 261.194 249.806 265 254.5 265Z" fill="#3D3D3D"/>
<path fill-rule="evenodd" clip-rule="evenodd" d="M137.5 265C142.194 265 146 261.194 146 256.5C146 251.806 142.194 248 137.5 248C132.806 248 129 251.806 129 256.5C129 261.194 132.806 265 137.5 265ZM254.5 265C259.194 265 263 261.194 263 256.5C263 251.806 259.194 248 254.5 248C249.806 248 246 251.806 246 256.5C246 261.194 249.806 265 254.5 265Z" fill="#3D3D3D"/>
<ellipse cx="140" cy="254" rx="2" ry="1" fill="white"/>
<ellipse cx="258" cy="255" rx="2" ry="1" fill="white"/>
<path d="M193.473 266.173C195.076 265.429 196.924 265.429 198.527 266.173L212.279 272.558C216.91 274.708 216.91 281.292 212.279 283.442L198.527 289.827C196.924 290.571 195.076 290.571 193.473 289.827L179.721 283.442C175.09 281.292 175.09 274.708 179.721 272.558L193.473 266.173Z" fill="#E7C345"/>
<defs>
<linearGradient id="paint0_linear" x1="204.5" y1="111" x2="204.5" y2="395" gradientUnits="userSpaceOnUse">
<stop stop-color="#72DC57"/>
<stop offset="0.0001" stop-color="#72DC57" stop-opacity="0.921867"/>
<stop offset="0.0002" stop-color="#72DC57"/>
<stop offset="0.9998" stop-color="#50BEA4"/>
<stop offset="0.9999" stop-color="#72DC57" stop-opacity="0.25"/>
<stop offset="1" stop-color="#72DC57"/>
</linearGradient>
</defs>
</svg>
