<svg width="21971" height="32239" viewBox="0 0 21971 32239" fill="none" xmlns="http://www.w3.org/2000/svg">
<path d="M11170.1 15205.4C11512.8 14889.9 11924 14511.4 12334.1 14453.2C12433 14439.2 12461 14453.2 12461 14453.2C12461 14453.2 12018.3 15125.3 11642.1 15587C11283.8 16026.6 10985.7 16457.5 10917.1 17110.1C10867.2 17584 10656.8 17949.2 10917.1 18271.1C11823.6 19392.3 14132.6 20082.9 15472.7 20513.1C17091 21032.7 19008.1 22627.2 19863.7 24568.2C20323.1 25610.6 20085.1 25296 20207.3 26500.3C20454 28932.8 18046 32239 18046 32239H0C0 32239 1381.02 31048.3 2277.37 30310.7C5987.69 27257.8 14061.1 28217.2 11642.1 23318.9C10536.8 21080.6 7562.9 21629.4 8091.52 19030C8332.34 17845.8 9054.9 17110.1 9054.9 17110.1C9779.97 16144.5 10321.3 15986.7 11161.6 15213.2L11170.1 15205.4Z" fill="url(#paint0_linear)"/>
<g filter="url(#filter0_d)">
<path d="M15351.5 5694L18926 12773H11777L15351.5 5694Z" fill="#0285B4"/>
</g>
<path d="M13770 8616.09L15023.6 11916L15547 8157.52L15353.7 5699L14462.5 7462.59L13770 8616.09Z" fill="#007199" stroke="black"/>
<path d="M11776 997L17465.8 14470H6086.21L11776 997Z" fill="#434997"/>
<rect x="11764" y="3" width="54" height="982" fill="#C4C4C4"/>
<path d="M12668 264.5L11809.2 528.205L11809.2 0.795211L12668 264.5Z" fill="#DA0000"/>
<path d="M11028.9 5788.49L11785.6 1112.42L11750.6 1070L8088.23 9730.32L8070.73 9796.98L7825 10358.5C8657.79 11766.4 10323.4 14554.3 10323.4 14442.8C10323.4 14331.3 12032.9 14396.3 12887.7 14442.8L13769 12894.5L13878 12349.1L13942 12126.9L10814.8 9127.38L12141.8 7779.1L11028.9 5788.49Z" fill="#2B317D" stroke="black"/>
<path d="M4884.04 11685.1L5947.15 10063.2L6380.2 9319.73C6380.2 9319.73 6617.57 8812.34 6813.25 8576.24C6982.09 8372.54 7079.62 8181.57 7285.87 8170.53C7505.95 8158.75 7623.73 8344.71 7797.79 8576.24C8033.68 8890.04 8040.68 9262.24 8230.55 9657.5C8438.05 10089.4 8594.51 10268.5 8821.05 10671.3C9040.18 11060.9 9136 11326.2 9372.25 11685.1C9653.4 12112.2 10159.8 12631.4 10159.8 12631.4C10159.8 12631.4 10526.5 13207.7 10790.1 13510.3C11093.2 13858.2 11616.9 14254.3 11616.9 14254.3L12286 14660H1931L3623.9 13104.6L4884.04 11685.1Z" fill="#295FA6" stroke="black"/>
<path d="M5927.15 11718.2L7318 8194.25V8170H7236.82L7155.65 8194.25L7002.88 8307.4L6725.48 8670.1L6513.27 9042.89L6302.34 9448.02L5927.15 10073.4L5462.46 10774.5L4852.05 11718.2L3512.97 13199.2L1931 14647H6302.34L5927.15 11718.2Z" fill="#1C529A" stroke="black"/>
<path fill-rule="evenodd" clip-rule="evenodd" d="M11504.5 14569.1L11514.9 14553.6C11527.6 14544.6 11551.5 14536.3 11586 14528.8L11534.2 14660H21926.7H21957.8L21956.2 14658.6C21961.2 14658.7 21966.1 14658.8 21971 14659L21665 14330.8L21204.9 13928.8L20678.8 13175.4L20161.9 12406.9L19645 11638.3L19294.1 11288.9L18812.9 11076.8L18311.9 10965.8H18029H17669.4L17342.9 11076.8L16931.7 11367.7L16076.4 12070.6L15452.5 12774.5L15090.3 13175.4L14755.2 12774.5L14379.7 12498.8L14005.6 12372.6H13348.6L12855.5 12774.5L12427.9 13175.4L11934.8 13928.8L11674.1 14316.7L11669.8 14316.6L11663.6 14332.3L11514.9 14553.6C11508 14558.5 11504.5 14563.7 11504.5 14569.1Z" fill="#3EC9BB"/>
<path d="M11521.3 14552L12435.2 13194.7L12484.8 13129.1L12573.4 13045.3L12732.7 12899L12723.5 12918.2L12653.4 13061.5L12591.2 13272.4L12573.4 13434.9V13656.9L12919.2 14099.9L13388.1 14423.9L14292 14659H11436L11453.2 14636.8L11521.3 14552Z" fill="#13B8A8"/>
<path d="M12509.2 13129.1L12435.2 13194.7M12435.2 13194.7L11521.3 14552L11453.2 14636.8L11436 14659H14292L13388.1 14423.9L12919.2 14099.9L12573.4 13656.9V13434.9L12591.2 13272.4L12653.4 13061.5L12723.5 12918.2L12732.7 12899L12573.4 13045.3L12484.8 13129.1L12435.2 13194.7Z" stroke="black"/>
<path d="M15915.8 13892.3C15578.6 13639.2 15100 13173.4 15100 13173.4L15608.9 12622.9L16071.6 12102.8L16534.9 11704.9L16997.5 11329.2L17156.8 11208C17156.8 11208 17051.6 11505.2 16997.5 11704.9C16935.4 11934.1 16891.1 12062.6 16866.7 12307.8C16844.8 12527.4 16838.4 12658.6 16866.7 12876.4C16911.8 13223.4 16995.1 13413.2 17156.8 13666.2C17442.2 14112.7 18148.9 14172.2 18148.9 14172.2C18379.3 14264.1 18744.4 14372.2 18744.4 14372.2C18991.3 14446.2 19379.5 14538.8 19379.5 14538.8L19588.4 14623.6L19669 14656L17222.9 14660C16685.9 14422.8 16393.7 14251.2 15915.8 13892.3Z" fill="#13B8A8"/>
<path d="M11817.3 985H11765.8L10977 2861.81L11466.6 2602.83L11817.3 3073L12102.7 2458.7L12554 2746.2L11817.3 985Z" fill="white"/>
<path d="M15360.6 5694H15313.2L14589 7146L15040.2 6634.8L15499.6 6959.49L15568.9 6634.8L16037 7056.55L15360.6 5694Z" fill="white"/>
<path d="M7052.39 8241.08L7276.19 8115H7330.54L7460.34 8194.68L7580.55 8280.41L7794.12 8546.69L7917.53 8750.43L8010.89 8992.49L8122.79 9378.79L8243 9672.3L8211.67 9643.05L7863.18 9378.79L7398.32 9989L6772.96 9643.05L6494.81 9806.44L5966 9989L6407.84 9235.57L6597.11 8891.63L6772.96 8593.08L7052.39 8241.08Z" fill="white"/>
<path d="M17270.5 11128.5L16902 11389.9C16902 11389.9 17170.1 11370.7 17341.2 11389.9C17572.8 11416 17733 11351.4 17927 11546.4C18053 11672.9 18060.4 11854.5 18183.9 11986.4C18435.3 12255 18666.8 12253.5 18963.3 12133.8C19061.1 12094.3 19203.7 11986.4 19203.7 11986.4C19203.7 11986.4 19323.6 11716.4 19443.4 11660.4C19527.3 11621.3 19668 11660.4 19668 11660.4L19333.1 11326.4L19203.7 11230.5L18839.8 11077.1L18308.1 10962H17927H17680.7L17555.2 10994.3L17341.2 11077.1L17270.5 11128.5Z" fill="white" stroke="white"/>
<path d="M12892 12754.1L13170.6 12481.6L13224 12427.9L13385.8 12341.7L13480.7 12308H13666.9H13955L14356.9 12427.9L14632 12587.9L14729.9 12687.8L14983 13036.1C14983 13036.1 14876.6 12995.3 14813.2 13036.1C14722.6 13094.4 14617.5 13036.1 14617.5 13036.1C14617.5 13036.1 14205.7 12712.9 14131.8 12754.1C13976.7 12840.5 13815.5 12951.2 13667.9 12918.6C13697.1 12959.3 13679.1 12945.4 13644 12911.9C13586.9 12892.9 13532.1 12850.5 13480.7 12774.8C13402.7 12755 13321.8 12769.3 13224 12754.1C13094.7 12734.1 12892 12754.1 12892 12754.1Z" fill="white" stroke="white"/>
<path fill-rule="evenodd" clip-rule="evenodd" d="M9598.57 30924.2L10224.6 31399.3C10224.6 31399.3 10269.4 31346.6 10293.4 31312C10327.2 31263.2 10457.4 31202.7 10457.4 31202.7C10457.4 31202.7 10551 31150.6 10654.3 31115.6C10778.6 31073.4 10973 31008.4 10973 31008.4C10973 31008.4 11079.1 30968.8 11161.6 30926.2C11233 30889.2 11359.6 30746.8 11359.6 30746.8C11359.6 30746.8 11541.8 30584.3 11490.4 30400.2C11457.3 30282 11371.8 30158.4 11371.8 30158.4C11371.8 30158.4 11155.2 30011.2 11077.2 29994.6C10979.8 29974 10914.3 29985.4 10834.7 29999.2C10807.9 30003.9 10779.4 30008.9 10747.5 30013C10583.3 30034.1 10500.6 30060.4 10365.8 30134.7C10246.8 30200.3 10195.7 30247.1 10104 30339.1C10071.7 30371.5 10041.7 30400.3 10013.5 30427.4C9902.16 30534.5 9819.88 30613.5 9742.04 30771.4C9711.3 30833.8 9598.57 30924.2 9598.57 30924.2ZM9460.74 31038.9L10119.5 31516.6C10119.5 31516.6 10021.2 31597.9 9956.64 31648.6C9929.96 31669.6 9909.08 31689.9 9889.37 31709.1C9849.71 31747.7 9814.83 31781.6 9747.04 31806.7C9635.76 31848 9550.71 31869.6 9426.9 31828.6C9331.07 31796.9 9272.08 31759.7 9217.81 31682.9C9157.36 31597.3 9170.02 31529 9185.99 31442.9C9188.11 31431.4 9190.29 31419.7 9192.36 31407.6C9222.16 31233 9460.74 31038.9 9460.74 31038.9Z" fill="#030303" fill-opacity="0.8"/>
<path d="M10224.6 31399.3L10224.3 31399.7L10224.7 31400L10225 31399.6L10224.6 31399.3ZM9598.57 30924.2L9598.26 30923.8L9597.76 30924.2L9598.27 30924.6L9598.57 30924.2ZM10293.4 31312L10293.8 31312.3L10293.4 31312ZM10457.4 31202.7L10457.6 31203.1L10457.6 31203.1L10457.6 31203.1L10457.4 31202.7ZM10654.3 31115.6L10654.2 31115.1L10654.3 31115.6ZM10973 31008.4L10973.1 31008.9L10973.1 31008.9L10973.1 31008.9L10973 31008.4ZM11161.6 30926.2L11161.8 30926.6L11161.6 30926.2ZM11359.6 30746.8L11359.3 30746.4L11359.3 30746.4L11359.3 30746.4L11359.6 30746.8ZM11490.4 30400.2L11489.9 30400.3L11490.4 30400.2ZM11371.8 30158.4L11372.3 30158.1L11372.2 30158L11372.1 30158L11371.8 30158.4ZM11077.2 29994.6L11077.3 29994.2L11077.3 29994.2L11077.2 29994.6ZM10834.7 29999.2L10834.6 29998.7L10834.7 29999.2ZM10747.5 30013L10747.6 30013.5L10747.5 30013ZM10365.8 30134.7L10366.1 30135.1L10365.8 30134.7ZM10104 30339.1L10103.6 30338.7L10104 30339.1ZM10013.5 30427.4L10013.2 30427L10013.5 30427.4ZM9742.04 30771.4L9741.59 30771.2L9742.04 30771.4ZM10119.5 31516.6L10119.8 31517L10120.3 31516.5L10119.8 31516.2L10119.5 31516.6ZM9460.74 31038.9L9461.04 31038.5L9460.73 31038.3L9460.43 31038.5L9460.74 31038.9ZM9956.64 31648.6L9956.95 31649L9956.64 31648.6ZM9889.37 31709.1L9889.02 31708.7L9889.37 31709.1ZM9747.04 31806.7L9747.21 31807.2L9747.04 31806.7ZM9426.9 31828.6L9427.05 31828.2L9426.9 31828.6ZM9217.81 31682.9L9217.41 31683.2L9217.81 31682.9ZM9185.99 31442.9L9185.5 31442.8L9185.99 31442.9ZM9192.36 31407.6L9192.85 31407.7L9192.36 31407.6ZM10224.9 31398.9L9598.87 30923.8L9598.27 30924.6L10224.3 31399.7L10224.9 31398.9ZM10293 31311.7C10281 31329 10263.8 31350.8 10249.6 31368.3C10242.5 31377 10236.1 31384.7 10231.6 31390.2C10229.3 31392.9 10227.4 31395.1 10226.2 31396.6C10225.5 31397.4 10225 31398 10224.7 31398.4C10224.5 31398.6 10224.4 31398.7 10224.3 31398.8C10224.3 31398.9 10224.2 31398.9 10224.2 31398.9C10224.2 31398.9 10224.2 31398.9 10224.2 31398.9C10224.2 31398.9 10224.2 31399 10224.2 31399C10224.2 31399 10224.2 31399 10224.2 31399C10224.2 31399 10224.2 31399 10224.6 31399.3C10225 31399.6 10225 31399.6 10225 31399.6C10225 31399.6 10225 31399.6 10225 31399.6C10225 31399.6 10225 31399.6 10225 31399.6C10225 31399.6 10225 31399.6 10225 31399.6C10225 31399.5 10225 31399.5 10225.1 31399.5C10225.2 31399.3 10225.3 31399.2 10225.5 31399C10225.8 31398.6 10226.3 31398 10226.9 31397.3C10228.2 31395.8 10230 31393.6 10232.3 31390.8C10236.9 31385.3 10243.3 31377.7 10250.4 31368.9C10264.6 31351.4 10281.8 31329.6 10293.8 31312.3L10293 31311.7ZM10457.4 31202.7C10457.2 31202.2 10457.2 31202.2 10457.2 31202.2C10457.2 31202.2 10457.2 31202.2 10457.2 31202.2C10457.2 31202.2 10457.2 31202.2 10457.2 31202.2C10457.1 31202.2 10457.1 31202.2 10457.1 31202.3C10457 31202.3 10456.9 31202.3 10456.8 31202.4C10456.6 31202.5 10456.2 31202.7 10455.7 31202.9C10454.8 31203.4 10453.3 31204 10451.5 31204.9C10447.9 31206.7 10442.7 31209.2 10436.3 31212.4C10423.6 31218.9 10406.2 31228 10387.8 31238.6C10369.4 31249.2 10349.9 31261.4 10333 31273.9C10316 31286.5 10301.5 31299.4 10293 31311.7L10293.8 31312.3C10302.2 31300.2 10316.6 31287.3 10333.6 31274.7C10350.5 31262.2 10369.9 31250.1 10388.3 31239.5C10406.7 31228.9 10424 31219.8 10436.7 31213.3C10443.1 31210.1 10448.3 31207.6 10452 31205.8C10453.8 31204.9 10455.2 31204.3 10456.1 31203.8C10456.6 31203.6 10457 31203.4 10457.2 31203.3C10457.4 31203.2 10457.5 31203.2 10457.5 31203.2C10457.5 31203.1 10457.6 31203.1 10457.6 31203.1C10457.6 31203.1 10457.6 31203.1 10457.6 31203.1C10457.6 31203.1 10457.6 31203.1 10457.6 31203.1C10457.6 31203.1 10457.6 31203.1 10457.4 31202.7ZM10654.2 31115.1C10602.5 31132.6 10553.2 31154.4 10516.9 31171.8C10498.7 31180.5 10483.8 31188.1 10473.4 31193.5C10468.2 31196.3 10464.1 31198.4 10461.4 31199.9C10460 31200.7 10458.9 31201.2 10458.2 31201.6C10457.9 31201.8 10457.6 31202 10457.4 31202.1C10457.3 31202.1 10457.3 31202.2 10457.2 31202.2C10457.2 31202.2 10457.2 31202.2 10457.2 31202.2C10457.2 31202.2 10457.2 31202.2 10457.2 31202.2C10457.2 31202.2 10457.2 31202.2 10457.2 31202.2C10457.2 31202.2 10457.2 31202.2 10457.4 31202.7C10457.6 31203.1 10457.6 31203.1 10457.6 31203.1C10457.6 31203.1 10457.6 31203.1 10457.6 31203.1C10457.6 31203.1 10457.7 31203.1 10457.7 31203.1C10457.7 31203.1 10457.7 31203.1 10457.7 31203.1C10457.8 31203 10457.8 31203 10457.9 31203C10458.1 31202.9 10458.4 31202.7 10458.7 31202.5C10459.4 31202.1 10460.5 31201.5 10461.9 31200.8C10464.6 31199.3 10468.7 31197.1 10473.9 31194.4C10484.3 31189 10499.2 31181.4 10517.3 31172.7C10553.6 31155.3 10602.9 31133.6 10654.5 31116L10654.2 31115.1ZM10973 31008.4C10972.8 31007.9 10972.8 31007.9 10972.8 31007.9C10972.8 31007.9 10972.8 31007.9 10972.8 31007.9C10972.8 31007.9 10972.8 31007.9 10972.8 31007.9C10972.7 31007.9 10972.7 31007.9 10972.7 31008C10972.6 31008 10972.4 31008 10972.2 31008.1C10971.9 31008.2 10971.3 31008.4 10970.6 31008.7C10969.1 31009.1 10967 31009.9 10964.2 31010.8C10958.7 31012.7 10950.6 31015.4 10940.5 31018.7C10920.3 31025.5 10892.2 31034.9 10860.1 31045.7C10796 31067.2 10716.3 31094 10654.2 31115.1L10654.5 31116C10716.6 31095 10796.3 31068.2 10860.4 31046.7C10892.5 31035.9 10920.7 31026.4 10940.8 31019.7C10950.9 31016.3 10959 31013.6 10964.5 31011.7C10967.3 31010.8 10969.5 31010.1 10970.9 31009.6C10971.6 31009.4 10972.2 31009.2 10972.6 31009.1C10972.8 31009 10972.9 31008.9 10973 31008.9C10973 31008.9 10973.1 31008.9 10973.1 31008.9C10973.1 31008.9 10973.1 31008.9 10973.1 31008.9C10973.1 31008.9 10973.1 31008.9 10973.1 31008.9C10973.1 31008.9 10973.1 31008.9 10973 31008.4ZM11161.3 30925.7C11120.1 30947 11073 30967.6 11036.2 30982.8C11017.7 30990.4 11001.9 30996.7 10990.7 31001.1C10985 31003.3 10980.6 31005 10977.5 31006.1C10976 31006.7 10974.8 31007.2 10974 31007.5C10973.6 31007.6 10973.3 31007.7 10973.1 31007.8C10973 31007.8 10972.9 31007.9 10972.9 31007.9C10972.8 31007.9 10972.8 31007.9 10972.8 31007.9C10972.8 31007.9 10972.8 31007.9 10972.8 31007.9C10972.8 31007.9 10972.8 31007.9 10972.8 31007.9C10972.8 31007.9 10972.8 31007.9 10973 31008.4C10973.1 31008.9 10973.1 31008.9 10973.1 31008.9C10973.1 31008.9 10973.1 31008.9 10973.1 31008.9C10973.2 31008.9 10973.2 31008.9 10973.2 31008.9C10973.2 31008.8 10973.2 31008.8 10973.2 31008.8C10973.3 31008.8 10973.3 31008.8 10973.4 31008.7C10973.7 31008.7 10974 31008.6 10974.4 31008.4C10975.2 31008.1 10976.3 31007.7 10977.9 31007.1C10980.9 31005.9 10985.4 31004.2 10991 31002C11002.3 30997.6 11018.1 30991.3 11036.5 30983.7C11073.4 30968.5 11120.6 30947.9 11161.8 30926.6L11161.3 30925.7ZM11359.6 30746.8C11359.3 30746.4 11359.3 30746.4 11359.3 30746.4C11359.3 30746.4 11359.3 30746.4 11359.3 30746.4C11359.2 30746.4 11359.2 30746.4 11359.2 30746.5C11359.2 30746.5 11359.2 30746.5 11359.2 30746.5C11359.1 30746.6 11359 30746.7 11358.9 30746.8C11358.7 30747.1 11358.3 30747.5 11357.8 30748C11356.9 30749.1 11355.5 30750.6 11353.7 30752.6C11350.1 30756.6 11344.9 30762.3 11338.4 30769.3C11325.4 30783.2 11307.3 30802.1 11287 30822.2C11246.4 30862.5 11197 30907.3 11161.3 30925.7L11161.8 30926.6C11197.6 30908.1 11247.2 30863.2 11287.7 30823C11308 30802.8 11326.1 30783.9 11339.1 30769.9C11345.6 30763 11350.8 30757.3 11354.4 30753.3C11356.2 30751.3 11357.6 30749.8 11358.6 30748.7C11359 30748.2 11359.4 30747.8 11359.6 30747.5C11359.8 30747.4 11359.9 30747.3 11359.9 30747.2C11359.9 30747.2 11360 30747.1 11360 30747.1C11360 30747.1 11360 30747.1 11360 30747.1C11360 30747.1 11360 30747.1 11360 30747.1C11360 30747.1 11360 30747.1 11359.6 30746.8ZM11489.9 30400.3C11515.6 30492.2 11483 30578.7 11443.9 30642.3C11424.3 30674 11403.2 30700.1 11386.9 30718.2C11378.8 30727.2 11371.9 30734.3 11367 30739.1C11364.6 30741.5 11362.6 30743.3 11361.3 30744.5C11360.7 30745.1 11360.2 30745.6 11359.8 30745.9C11359.6 30746.1 11359.5 30746.2 11359.4 30746.3C11359.4 30746.3 11359.4 30746.3 11359.3 30746.4C11359.3 30746.4 11359.3 30746.4 11359.3 30746.4C11359.3 30746.4 11359.3 30746.4 11359.3 30746.4C11359.3 30746.4 11359.3 30746.4 11359.6 30746.8C11360 30747.1 11360 30747.1 11360 30747.1C11360 30747.1 11360 30747.1 11360 30747.1C11360 30747.1 11360 30747.1 11360 30747.1C11360 30747.1 11360.1 30747.1 11360.1 30747C11360.2 30746.9 11360.3 30746.8 11360.5 30746.7C11360.8 30746.3 11361.3 30745.9 11362 30745.3C11363.3 30744 11365.3 30742.2 11367.7 30739.8C11372.6 30735 11379.5 30727.9 11387.7 30718.8C11404 30700.7 11425.2 30674.6 11444.7 30642.8C11483.9 30579.1 11516.6 30492.3 11490.9 30400L11489.9 30400.3ZM11371.8 30158.4C11371.4 30158.7 11371.4 30158.7 11371.4 30158.7C11371.4 30158.7 11371.4 30158.7 11371.4 30158.7C11371.4 30158.7 11371.4 30158.7 11371.5 30158.7C11371.5 30158.7 11371.5 30158.8 11371.5 30158.8C11371.5 30158.8 11371.6 30158.9 11371.7 30159.1C11371.8 30159.3 11372.1 30159.6 11372.4 30160.1C11373 30161 11374 30162.4 11375.2 30164.2C11377.6 30167.8 11381 30173.1 11385.3 30179.8C11393.8 30193.3 11405.5 30212.4 11418.3 30235.2C11443.8 30280.9 11473.4 30341.3 11489.9 30400.3L11490.9 30400C11474.3 30340.9 11444.7 30280.4 11419.2 30234.7C11406.4 30211.9 11394.7 30192.7 11386.1 30179.3C11381.9 30172.6 11378.4 30167.3 11376 30163.7C11374.8 30161.9 11373.9 30160.5 11373.2 30159.5C11372.9 30159.1 11372.7 30158.7 11372.5 30158.5C11372.4 30158.4 11372.4 30158.3 11372.3 30158.2C11372.3 30158.2 11372.3 30158.2 11372.3 30158.1C11372.3 30158.1 11372.3 30158.1 11372.3 30158.1C11372.3 30158.1 11372.3 30158.1 11372.3 30158.1C11372.3 30158.1 11372.3 30158.1 11371.8 30158.4ZM11077.1 29995.1C11096.5 29999.3 11124.6 30011.5 11155.9 30027.7C11187.2 30043.8 11221.6 30063.7 11253.5 30083.2C11285.5 30102.6 11315 30121.5 11336.5 30135.6C11347.3 30142.6 11356 30148.4 11362.1 30152.5C11365.1 30154.5 11367.5 30156.1 11369.1 30157.2C11369.9 30157.7 11370.5 30158.1 11370.9 30158.4C11371.1 30158.5 11371.3 30158.6 11371.4 30158.7C11371.5 30158.8 11371.5 30158.8 11371.5 30158.8C11371.5 30158.8 11371.5 30158.8 11371.6 30158.8C11371.6 30158.8 11371.6 30158.8 11371.6 30158.8C11371.6 30158.8 11371.6 30158.8 11371.8 30158.4C11372.1 30158 11372.1 30158 11372.1 30158C11372.1 30158 11372.1 30158 11372.1 30158C11372.1 30158 11372.1 30158 11372.1 30158C11372.1 30158 11372 30157.9 11372 30157.9C11371.9 30157.8 11371.7 30157.7 11371.5 30157.6C11371.1 30157.3 11370.5 30156.9 11369.7 30156.3C11368.1 30155.3 11365.7 30153.7 11362.7 30151.6C11356.6 30147.6 11347.8 30141.8 11337.1 30134.7C11315.5 30120.7 11286 30101.8 11254 30082.3C11222.1 30062.9 11187.7 30042.9 11156.4 30026.8C11125.1 30010.7 11096.9 29998.3 11077.3 29994.2L11077.1 29995.1ZM10834.8 29999.7C10914.4 29985.8 10979.8 29974.5 11077.1 29995.1L11077.3 29994.2C10979.8 29973.4 10914.2 29984.9 10834.6 29998.7L10834.8 29999.7ZM10747.6 30013.5C10779.5 30009.4 10808 30004.4 10834.8 29999.7L10834.6 29998.7C10807.8 30003.4 10779.3 30008.4 10747.5 30012.5L10747.6 30013.5ZM10366.1 30135.1C10500.8 30060.8 10583.5 30034.6 10747.6 30013.5L10747.5 30012.5C10583.2 30033.6 10500.4 30059.9 10365.6 30134.2L10366.1 30135.1ZM10104.3 30339.4C10196 30247.5 10247.1 30200.7 10366.1 30135.1L10365.6 30134.2C10246.5 30199.9 10195.3 30246.8 10103.6 30338.7L10104.3 30339.4ZM10013.9 30427.8C10042 30400.7 10072.1 30371.8 10104.3 30339.4L10103.6 30338.7C10071.4 30371.1 10041.3 30400 10013.2 30427L10013.9 30427.8ZM9742.49 30771.6C9820.29 30613.9 9902.51 30534.8 10013.9 30427.8L10013.2 30427C9901.81 30534.1 9819.48 30613.2 9741.59 30771.2L9742.49 30771.6ZM9598.57 30924.2C9598.88 30924.6 9598.89 30924.6 9598.89 30924.6C9598.89 30924.6 9598.89 30924.6 9598.89 30924.6C9598.89 30924.5 9598.9 30924.5 9598.91 30924.5C9598.92 30924.5 9598.94 30924.5 9598.97 30924.5C9599.02 30924.4 9599.1 30924.4 9599.21 30924.3C9599.43 30924.1 9599.74 30923.9 9600.16 30923.5C9601 30922.8 9602.22 30921.8 9603.79 30920.5C9606.94 30917.9 9611.46 30914.2 9616.99 30909.4C9628.05 30900 9643.1 30886.7 9659.12 30871.5C9691.15 30841.1 9727.08 30802.9 9742.49 30771.6L9741.59 30771.2C9726.27 30802.3 9690.46 30840.4 9658.44 30870.8C9642.43 30886 9627.39 30899.2 9616.34 30908.7C9610.82 30913.4 9606.3 30917.2 9603.16 30919.8C9601.59 30921.1 9600.36 30922.1 9599.53 30922.7C9599.11 30923.1 9598.8 30923.3 9598.58 30923.5C9598.48 30923.6 9598.39 30923.7 9598.34 30923.7C9598.31 30923.7 9598.29 30923.7 9598.28 30923.8C9598.27 30923.8 9598.27 30923.8 9598.26 30923.8C9598.26 30923.8 9598.26 30923.8 9598.26 30923.8C9598.26 30923.8 9598.26 30923.8 9598.57 30924.2ZM10119.8 31516.2L9461.04 31038.5L9460.45 31039.3L10119.2 31517L10119.8 31516.2ZM9956.95 31649C9989.23 31623.7 10029.9 31590.7 10062.6 31564C10078.9 31550.6 10093.2 31538.9 10103.4 31530.5C10108.5 31526.2 10112.6 31522.9 10115.4 31520.5C10116.9 31519.4 10117.9 31518.5 10118.7 31517.9C10119 31517.6 10119.3 31517.3 10119.5 31517.2C10119.6 31517.1 10119.7 31517.1 10119.7 31517C10119.7 31517 10119.8 31517 10119.8 31517C10119.8 31517 10119.8 31517 10119.8 31517C10119.8 31517 10119.8 31517 10119.8 31517C10119.8 31517 10119.8 31517 10119.5 31516.6C10119.2 31516.2 10119.2 31516.2 10119.2 31516.2C10119.2 31516.2 10119.2 31516.2 10119.2 31516.2C10119.2 31516.2 10119.1 31516.2 10119.1 31516.2C10119.1 31516.2 10119.1 31516.2 10119.1 31516.2C10119 31516.3 10119 31516.3 10118.9 31516.4C10118.7 31516.6 10118.4 31516.8 10118 31517.1C10117.3 31517.7 10116.2 31518.6 10114.8 31519.8C10112 31522.1 10107.9 31525.5 10102.8 31529.7C10092.6 31538.1 10078.3 31549.9 10062 31563.2C10029.3 31589.9 9988.61 31622.9 9956.33 31648.2L9956.95 31649ZM9889.72 31709.4C9909.42 31690.3 9930.29 31670 9956.95 31649L9956.33 31648.2C9929.63 31669.2 9908.73 31689.6 9889.02 31708.7L9889.72 31709.4ZM9747.21 31807.2C9815.11 31782.1 9850.06 31748 9889.72 31709.4L9889.02 31708.7C9849.37 31747.3 9814.55 31781.2 9746.86 31806.3L9747.21 31807.2ZM9426.74 31829.1C9550.71 31870.1 9635.9 31848.5 9747.21 31807.2L9746.86 31806.3C9635.63 31847.5 9550.71 31869.1 9427.05 31828.2L9426.74 31829.1ZM9217.41 31683.2C9271.74 31760.1 9330.84 31797.4 9426.74 31829.1L9427.05 31828.2C9331.3 31796.5 9272.41 31759.3 9218.22 31682.6L9217.41 31683.2ZM9185.5 31442.8C9177.52 31485.8 9170.34 31524.5 9172.74 31563.1C9175.15 31601.8 9187.13 31640.3 9217.41 31683.2L9218.22 31682.6C9188.05 31639.9 9176.13 31601.5 9173.74 31563.1C9171.35 31524.6 9178.49 31486.1 9186.48 31443L9185.5 31442.8ZM9191.87 31407.5C9189.79 31419.6 9187.62 31431.4 9185.5 31442.8L9186.48 31443C9188.6 31431.5 9190.78 31419.8 9192.85 31407.7L9191.87 31407.5ZM9460.74 31038.9C9460.43 31038.5 9460.43 31038.5 9460.43 31038.5C9460.42 31038.5 9460.42 31038.5 9460.42 31038.5C9460.41 31038.5 9460.4 31038.6 9460.38 31038.6C9460.36 31038.6 9460.31 31038.6 9460.25 31038.7C9460.14 31038.8 9459.97 31038.9 9459.74 31039.1C9459.29 31039.5 9458.62 31040 9457.74 31040.8C9455.98 31042.2 9453.4 31044.4 9450.11 31047.2C9443.52 31052.9 9434.08 31061.1 9422.66 31071.6C9399.82 31092.5 9369.06 31122.3 9337.36 31157.5C9273.98 31227.8 9206.79 31320.1 9191.87 31407.5L9192.85 31407.7C9207.73 31320.5 9274.73 31228.5 9338.1 31158.1C9369.77 31123 9400.51 31093.3 9423.34 31072.3C9434.75 31061.9 9444.18 31053.6 9450.76 31048C9454.05 31045.2 9456.62 31043 9458.38 31041.5C9459.25 31040.8 9459.93 31040.2 9460.38 31039.9C9460.6 31039.7 9460.77 31039.5 9460.89 31039.4C9460.95 31039.4 9460.99 31039.4 9461.02 31039.3C9461.03 31039.3 9461.04 31039.3 9461.05 31039.3C9461.05 31039.3 9461.06 31039.3 9461.06 31039.3C9461.06 31039.3 9461.06 31039.3 9460.74 31038.9Z" fill="black"/>
<path fill-rule="evenodd" clip-rule="evenodd" d="M13708.2 27652.8L14333.2 27759.8C14333.2 27759.8 14345.6 27705.4 14349.9 27671.7C14356 27624.3 14426.7 27532.4 14426.7 27532.4C14426.7 27532.4 14474.3 27460.3 14535.2 27396.8C14608.5 27320.3 14723.4 27201.4 14723.4 27201.4C14723.4 27201.4 14784.7 27133.6 14827.8 27072.4C14865.2 27019.3 14902.8 26870.2 14902.8 26870.2C14902.8 26870.2 14972.8 26686.1 14867.4 26573.5C14799.7 26501.2 14692.5 26444.5 14692.5 26444.5C14692.5 26444.5 14482.7 26419.8 14420.6 26437C14343.2 26458.4 14300.6 26490.9 14248.8 26530.5C14231.3 26543.9 14212.8 26558 14191.5 26572.8C14081.8 26649.1 14032.4 26698.7 13963.6 26802C13902.8 26893.3 13883.6 26945.8 13852.2 27045.8C13841.2 27081 13830.4 27112.8 13820.3 27142.7C13780.5 27260.8 13751 27348 13754.1 27490C13755.3 27546.1 13708.2 27652.8 13708.2 27652.8ZM13652.3 27786.2L14301.6 27882.9C14301.6 27882.9 14261.6 27977.7 14234.2 28038.1C14222.9 28063 14215.5 28085.3 14208.6 28106.4C14194.6 28148.8 14182.2 28186 14143 28229.3C14078.7 28300.2 14025.9 28347.3 13922 28364.1C13841.6 28377.1 13785.6 28372.4 13718.1 28337.6C13643 28298.8 13626.6 28245.3 13606 28177.6C13603.2 28168.7 13600.4 28159.5 13597.4 28150C13553.8 28014 13652.3 27786.2 13652.3 27786.2Z" fill="#030303" fill-opacity="0.79"/>
<path d="M14333.2 27759.8L14333.1 27760.3L14333.6 27760.4L14333.7 27759.9L14333.2 27759.8ZM13708.2 27652.8L13707.8 27652.6L13707.5 27653.1L13708.1 27653.3L13708.2 27652.8ZM14349.9 27671.7L14349.5 27671.7L14349.9 27671.7ZM14426.7 27532.4L14427.1 27532.7L14427.1 27532.7L14427.1 27532.7L14426.7 27532.4ZM14535.2 27396.8L14534.9 27396.4L14535.2 27396.8ZM14723.4 27201.4L14723.8 27201.8L14723.8 27201.8L14723.8 27201.8L14723.4 27201.4ZM14827.8 27072.4L14827.4 27072.1L14827.8 27072.4ZM14902.8 26870.2L14902.3 26870L14902.3 26870.1L14902.3 26870.1L14902.8 26870.2ZM14867.4 26573.5L14867.7 26573.1L14867.4 26573.5ZM14692.5 26444.5L14692.8 26444.1L14692.7 26444L14692.6 26444L14692.5 26444.5ZM14420.6 26437L14420.8 26437.5L14420.6 26437ZM14248.8 26530.5L14248.5 26530.1L14248.8 26530.5ZM14191.5 26572.8L14191.2 26572.4L14191.5 26572.8ZM13963.6 26802L13964 26802.3L13963.6 26802ZM13852.2 27045.8L13852.7 27045.9L13852.2 27045.8ZM13820.3 27142.7L13819.9 27142.5L13820.3 27142.7ZM13754.1 27490L13753.6 27490L13754.1 27490ZM14301.6 27882.9L14302.1 27883.1L14302.3 27882.5L14301.7 27882.4L14301.6 27882.9ZM13652.3 27786.2L13652.4 27785.7L13652 27785.7L13651.8 27786L13652.3 27786.2ZM14234.2 28038.1L14234.7 28038.3L14234.2 28038.1ZM14208.6 28106.4L14209.1 28106.5L14208.6 28106.4ZM14143 28229.3L14142.7 28228.9L14143 28229.3ZM13922 28364.1L13922.1 28364.6L13922 28364.1ZM13718.1 28337.6L13718.3 28337.2L13718.1 28337.6ZM13606 28177.6L13605.5 28177.8L13606 28177.6ZM13597.4 28150L13596.9 28150.2L13597.4 28150ZM14333.3 27759.3L13708.3 27652.3L13708.1 27653.3L14333.1 27760.3L14333.3 27759.3ZM14349.5 27671.7C14347.3 27688.5 14343.1 27710.5 14339.5 27728.3C14337.6 27737.2 14336 27745.1 14334.7 27750.7C14334.1 27753.5 14333.6 27755.8 14333.3 27757.3C14333.1 27758.1 14332.9 27758.7 14332.9 27759.1C14332.8 27759.3 14332.8 27759.5 14332.7 27759.6C14332.7 27759.6 14332.7 27759.7 14332.7 27759.7C14332.7 27759.7 14332.7 27759.7 14332.7 27759.7C14332.7 27759.7 14332.7 27759.7 14332.7 27759.7C14332.7 27759.7 14332.7 27759.7 14332.7 27759.7C14332.7 27759.7 14332.7 27759.7 14333.2 27759.8C14333.7 27759.9 14333.7 27759.9 14333.7 27759.9C14333.7 27759.9 14333.7 27759.9 14333.7 27759.9C14333.7 27759.9 14333.7 27759.9 14333.7 27759.9C14333.7 27759.9 14333.7 27759.9 14333.7 27759.9C14333.7 27759.9 14333.7 27759.8 14333.7 27759.8C14333.7 27759.7 14333.8 27759.5 14333.8 27759.3C14333.9 27758.9 14334.1 27758.3 14334.2 27757.5C14334.6 27756 14335.1 27753.7 14335.7 27750.9C14336.9 27745.3 14338.6 27737.4 14340.5 27728.5C14344.1 27710.7 14348.3 27688.7 14350.4 27671.8L14349.5 27671.7ZM14426.7 27532.4C14426.3 27532.1 14426.3 27532.1 14426.3 27532.1C14426.3 27532.1 14426.3 27532.1 14426.3 27532.1C14426.3 27532.1 14426.3 27532.1 14426.3 27532.1C14426.3 27532.1 14426.2 27532.2 14426.2 27532.2C14426.2 27532.2 14426.1 27532.3 14426.1 27532.4C14425.9 27532.6 14425.7 27532.8 14425.5 27533.2C14425 27533.8 14424.2 27534.9 14423.2 27536.2C14421.3 27538.8 14418.5 27542.5 14415.1 27547.2C14408.4 27556.6 14399.4 27569.5 14390.2 27584C14380.9 27598.5 14371.5 27614.4 14364 27629.7C14356.6 27645 14351 27659.7 14349.5 27671.7L14350.4 27671.8C14351.9 27660 14357.5 27645.4 14364.9 27630.2C14372.4 27614.9 14381.8 27599 14391 27584.5C14400.2 27570.1 14409.2 27557.2 14415.9 27547.8C14419.3 27543.1 14422.1 27539.4 14424 27536.8C14425 27535.5 14425.8 27534.4 14426.3 27533.8C14426.5 27533.4 14426.7 27533.2 14426.9 27533C14426.9 27532.9 14427 27532.8 14427 27532.8C14427 27532.8 14427 27532.8 14427.1 27532.7C14427.1 27532.7 14427.1 27532.7 14427.1 27532.7C14427.1 27532.7 14427.1 27532.7 14427.1 27532.7C14427.1 27532.7 14427.1 27532.7 14426.7 27532.4ZM14534.9 27396.4C14504.4 27428.2 14477.2 27462.1 14457.7 27488.1C14447.9 27501.1 14440.1 27512.1 14434.7 27519.9C14431.9 27523.8 14429.8 27526.8 14428.4 27528.9C14427.7 27530 14427.2 27530.8 14426.8 27531.3C14426.6 27531.6 14426.5 27531.8 14426.4 27531.9C14426.3 27532 14426.3 27532.1 14426.3 27532.1C14426.3 27532.1 14426.3 27532.1 14426.3 27532.1C14426.3 27532.1 14426.3 27532.1 14426.3 27532.1C14426.3 27532.1 14426.3 27532.1 14426.3 27532.1C14426.3 27532.1 14426.3 27532.1 14426.7 27532.4C14427.1 27532.7 14427.1 27532.7 14427.1 27532.7C14427.1 27532.7 14427.1 27532.7 14427.1 27532.7C14427.1 27532.7 14427.1 27532.7 14427.1 27532.7C14427.1 27532.7 14427.1 27532.7 14427.1 27532.6C14427.1 27532.6 14427.2 27532.6 14427.2 27532.5C14427.3 27532.3 14427.5 27532.1 14427.6 27531.9C14428 27531.3 14428.5 27530.5 14429.3 27529.5C14430.7 27527.4 14432.8 27524.3 14435.5 27520.4C14440.9 27512.7 14448.7 27501.7 14458.5 27488.7C14478 27462.8 14505.1 27428.9 14535.6 27397.1L14534.9 27396.4ZM14723.4 27201.4C14723 27201.1 14723 27201.1 14723 27201.1C14723 27201.1 14723 27201.1 14723 27201.1C14723 27201.1 14723 27201.1 14723 27201.1C14723 27201.1 14723 27201.1 14723 27201.2C14722.9 27201.2 14722.8 27201.3 14722.7 27201.4C14722.5 27201.7 14722.2 27202 14721.7 27202.4C14720.9 27203.3 14719.6 27204.6 14718 27206.3C14714.7 27209.7 14709.9 27214.7 14703.9 27220.9C14692 27233.2 14675.4 27250.5 14656.4 27270.1C14618.6 27309.4 14571.5 27358.2 14534.9 27396.4L14535.6 27397.1C14572.2 27358.9 14619.3 27310.1 14657.2 27270.8C14676.1 27251.1 14692.8 27233.9 14704.7 27221.6C14710.6 27215.4 14715.4 27210.4 14718.7 27207C14720.3 27205.3 14721.6 27204 14722.5 27203.1C14722.9 27202.7 14723.2 27202.3 14723.4 27202.1C14723.5 27202 14723.6 27201.9 14723.7 27201.9C14723.7 27201.8 14723.7 27201.8 14723.7 27201.8C14723.8 27201.8 14723.8 27201.8 14723.8 27201.8C14723.8 27201.8 14723.8 27201.8 14723.8 27201.8C14723.8 27201.8 14723.8 27201.8 14723.4 27201.4ZM14827.4 27072.1C14805.8 27102.7 14779.8 27134.9 14759 27159.5C14748.7 27171.8 14739.7 27182.2 14733.3 27189.5C14730.1 27193.2 14727.5 27196.1 14725.8 27198.1C14724.9 27199 14724.2 27199.8 14723.7 27200.3C14723.5 27200.6 14723.3 27200.8 14723.2 27200.9C14723.2 27201 14723.1 27201 14723.1 27201C14723.1 27201.1 14723.1 27201.1 14723 27201.1C14723 27201.1 14723 27201.1 14723 27201.1C14723 27201.1 14723 27201.1 14723 27201.1C14723 27201.1 14723 27201.1 14723.4 27201.4C14723.8 27201.8 14723.8 27201.8 14723.8 27201.8C14723.8 27201.8 14723.8 27201.8 14723.8 27201.8C14723.8 27201.8 14723.8 27201.8 14723.8 27201.8C14723.8 27201.7 14723.8 27201.7 14723.8 27201.7C14723.9 27201.7 14723.9 27201.6 14724 27201.6C14724.1 27201.4 14724.2 27201.2 14724.5 27201C14724.9 27200.5 14725.6 27199.7 14726.5 27198.7C14728.3 27196.8 14730.8 27193.9 14734 27190.2C14740.4 27182.9 14749.5 27172.5 14759.8 27160.2C14780.5 27135.5 14806.6 27103.3 14828.2 27072.7L14827.4 27072.1ZM14902.8 26870.2C14902.3 26870.1 14902.3 26870.1 14902.3 26870.1C14902.3 26870.1 14902.3 26870.1 14902.3 26870.1C14902.3 26870.1 14902.3 26870.1 14902.3 26870.1C14902.3 26870.1 14902.3 26870.2 14902.3 26870.2C14902.3 26870.3 14902.2 26870.4 14902.2 26870.5C14902.1 26870.8 14902 26871.2 14901.9 26871.8C14901.6 26872.9 14901.2 26874.5 14900.6 26876.6C14899.5 26880.8 14897.9 26886.8 14895.9 26894.2C14891.7 26909 14885.9 26929.3 14878.8 26951.2C14864.8 26995.2 14846 27045.6 14827.4 27072.1L14828.2 27072.7C14846.9 27046.1 14865.7 26995.4 14879.8 26951.6C14886.8 26929.6 14892.7 26909.3 14896.8 26894.5C14898.9 26887.1 14900.5 26881 14901.6 26876.9C14902.1 26874.8 14902.6 26873.1 14902.9 26872C14903 26871.5 14903.1 26871.1 14903.2 26870.8C14903.2 26870.6 14903.2 26870.5 14903.3 26870.4C14903.3 26870.4 14903.3 26870.4 14903.3 26870.4C14903.3 26870.4 14903.3 26870.3 14903.3 26870.3C14903.3 26870.3 14903.3 26870.3 14903.3 26870.3C14903.3 26870.3 14903.3 26870.3 14902.8 26870.2ZM14867 26573.8C14919.6 26630 14928.4 26704 14924.1 26764C14922 26794.1 14916.5 26820.6 14911.6 26839.6C14909.1 26849.1 14906.8 26856.7 14905.1 26861.9C14904.3 26864.6 14903.6 26866.6 14903.1 26868C14902.8 26868.6 14902.7 26869.2 14902.5 26869.5C14902.5 26869.7 14902.4 26869.8 14902.4 26869.9C14902.4 26870 14902.4 26870 14902.3 26870C14902.3 26870 14902.3 26870 14902.3 26870C14902.3 26870 14902.3 26870 14902.3 26870C14902.3 26870 14902.3 26870 14902.8 26870.2C14903.3 26870.4 14903.3 26870.4 14903.3 26870.4C14903.3 26870.4 14903.3 26870.4 14903.3 26870.4C14903.3 26870.4 14903.3 26870.4 14903.3 26870.4C14903.3 26870.3 14903.3 26870.3 14903.3 26870.3C14903.4 26870.2 14903.4 26870 14903.5 26869.9C14903.6 26869.5 14903.8 26869 14904 26868.3C14904.5 26866.9 14905.2 26864.9 14906.1 26862.2C14907.8 26857 14910.1 26849.3 14912.6 26839.8C14917.5 26820.8 14922.9 26794.2 14925.1 26764.1C14929.4 26703.9 14920.6 26629.6 14867.7 26573.1L14867 26573.8ZM14692.5 26444.5C14692.3 26445 14692.3 26445 14692.3 26445C14692.3 26445 14692.3 26445 14692.3 26445C14692.3 26445 14692.3 26445 14692.3 26445C14692.3 26445 14692.3 26445 14692.4 26445C14692.4 26445 14692.5 26445.1 14692.6 26445.1C14692.8 26445.2 14693.1 26445.4 14693.5 26445.6C14694.3 26446 14695.5 26446.7 14697 26447.5C14700.1 26449.2 14704.5 26451.7 14710.1 26454.9C14721.2 26461.4 14736.7 26470.7 14754.3 26482.3C14789.6 26505.5 14833.2 26537.7 14867 26573.8L14867.7 26573.1C14833.9 26536.9 14790.1 26504.7 14754.9 26481.5C14737.2 26469.9 14721.7 26460.5 14710.6 26454.1C14705 26450.8 14700.6 26448.3 14697.5 26446.7C14696 26445.8 14694.8 26445.2 14694 26444.7C14693.6 26444.5 14693.3 26444.3 14693.1 26444.2C14693 26444.2 14692.9 26444.1 14692.8 26444.1C14692.8 26444.1 14692.8 26444.1 14692.8 26444.1C14692.8 26444.1 14692.8 26444.1 14692.8 26444.1C14692.8 26444.1 14692.8 26444.1 14692.8 26444.1C14692.8 26444.1 14692.8 26444.1 14692.5 26444.5ZM14420.8 26437.5C14436.2 26433.2 14460.9 26431.5 14489.3 26431.4C14517.7 26431.3 14549.7 26432.8 14579.8 26434.8C14609.9 26436.8 14638.1 26439.4 14658.7 26441.4C14669 26442.4 14677.5 26443.3 14683.3 26444C14686.3 26444.3 14688.5 26444.6 14690.1 26444.7C14690.9 26444.8 14691.5 26444.9 14691.9 26444.9C14692.1 26445 14692.2 26445 14692.3 26445C14692.4 26445 14692.4 26445 14692.4 26445C14692.4 26445 14692.5 26445 14692.5 26445C14692.5 26445 14692.5 26445 14692.5 26445C14692.5 26445 14692.5 26445 14692.5 26444.5C14692.6 26444 14692.6 26444 14692.6 26444C14692.6 26444 14692.6 26444 14692.6 26444C14692.6 26444 14692.6 26444 14692.5 26444C14692.5 26444 14692.5 26444 14692.4 26444C14692.3 26444 14692.2 26444 14692 26443.9C14691.6 26443.9 14691 26443.8 14690.2 26443.7C14688.7 26443.6 14686.4 26443.3 14683.4 26443C14677.6 26442.3 14669.1 26441.4 14658.8 26440.4C14638.2 26438.4 14610 26435.8 14579.9 26433.8C14549.8 26431.8 14517.7 26430.3 14489.3 26430.4C14460.9 26430.5 14436.1 26432.2 14420.5 26436.5L14420.8 26437.5ZM14249.1 26530.9C14300.9 26491.4 14343.4 26458.9 14420.8 26437.5L14420.5 26436.5C14343 26458 14300.3 26490.5 14248.5 26530.1L14249.1 26530.9ZM14191.8 26573.2C14213.1 26558.4 14231.6 26544.2 14249.1 26530.9L14248.5 26530.1C14231 26543.5 14212.5 26557.6 14191.2 26572.4L14191.8 26573.2ZM13964 26802.3C14032.8 26699 14082.2 26649.4 14191.8 26573.2L14191.2 26572.4C14081.5 26648.7 14032 26698.3 13963.2 26801.7L13964 26802.3ZM13852.7 27045.9C13884.1 26946 13903.3 26893.5 13964 26802.3L13963.2 26801.7C13902.4 26893.1 13883.2 26945.7 13851.7 27045.6L13852.7 27045.9ZM13820.8 27142.9C13830.9 27113 13841.6 27081.1 13852.7 27045.9L13851.7 27045.6C13840.7 27080.8 13829.9 27112.7 13819.9 27142.5L13820.8 27142.9ZM13754.6 27490C13751.5 27348.1 13781 27260.9 13820.8 27142.9L13819.9 27142.5C13780 27260.6 13750.5 27347.9 13753.6 27490L13754.6 27490ZM13708.2 27652.8C13708.7 27653 13708.7 27653 13708.7 27653C13708.7 27653 13708.7 27653 13708.7 27653C13708.7 27653 13708.7 27652.9 13708.7 27652.9C13708.7 27652.9 13708.7 27652.9 13708.7 27652.9C13708.7 27652.8 13708.8 27652.8 13708.8 27652.7C13708.9 27652.4 13709 27652.1 13709.2 27651.7C13709.6 27651 13710.1 27649.8 13710.7 27648.3C13712 27645.2 13713.8 27640.8 13716 27635.4C13720.4 27624.5 13726.3 27609.4 13732.1 27592.6C13743.7 27558.9 13755.2 27518.1 13754.6 27490L13753.6 27490C13754.2 27518 13742.7 27558.6 13731.1 27592.3C13725.3 27609.1 13719.5 27624.2 13715.1 27635C13712.9 27640.5 13711.1 27644.8 13709.8 27647.9C13709.1 27649.4 13708.6 27650.6 13708.3 27651.4C13708.1 27651.7 13708 27652.1 13707.9 27652.3C13707.9 27652.4 13707.8 27652.4 13707.8 27652.5C13707.8 27652.5 13707.8 27652.5 13707.8 27652.5C13707.8 27652.5 13707.8 27652.6 13707.8 27652.6C13707.8 27652.6 13707.8 27652.6 13707.8 27652.6C13707.8 27652.6 13707.8 27652.6 13708.2 27652.8ZM14301.7 27882.4L13652.4 27785.7L13652.2 27786.7L14301.6 27883.4L14301.7 27882.4ZM14234.7 28038.3C14248.4 28008.1 14265.2 27969.3 14278.6 27938.1C14285.4 27922.4 14291.2 27908.7 14295.4 27898.9C14297.5 27893.9 14299.2 27890 14300.3 27887.3C14300.9 27885.9 14301.3 27884.9 14301.6 27884.2C14301.8 27883.8 14301.9 27883.6 14302 27883.4C14302 27883.3 14302 27883.2 14302.1 27883.2C14302.1 27883.1 14302.1 27883.1 14302.1 27883.1C14302.1 27883.1 14302.1 27883.1 14302.1 27883.1C14302.1 27883.1 14302.1 27883.1 14302.1 27883.1C14302.1 27883.1 14302.1 27883.1 14301.6 27882.9C14301.2 27882.7 14301.2 27882.7 14301.2 27882.7C14301.2 27882.7 14301.2 27882.7 14301.2 27882.7C14301.2 27882.7 14301.2 27882.7 14301.2 27882.7C14301.2 27882.7 14301.1 27882.8 14301.1 27882.8C14301.1 27882.8 14301.1 27882.9 14301.1 27883C14301 27883.2 14300.9 27883.4 14300.7 27883.8C14300.4 27884.5 14300 27885.5 14299.4 27886.9C14298.2 27889.6 14296.6 27893.6 14294.5 27898.5C14290.3 27908.3 14284.4 27922 14277.7 27937.7C14264.3 27968.9 14247.4 28007.7 14233.8 28037.9L14234.7 28038.3ZM14209.1 28106.5C14216 28085.5 14223.4 28063.2 14234.7 28038.3L14233.8 28037.9C14222.5 28062.8 14215.1 28085.2 14208.1 28106.2L14209.1 28106.5ZM14143.4 28229.6C14182.7 28186.3 14195 28148.9 14209.1 28106.5L14208.1 28106.2C14194.1 28148.6 14181.8 28185.8 14142.7 28228.9L14143.4 28229.6ZM13922.1 28364.6C14026.2 28347.8 14079.1 28300.6 14143.4 28229.6L14142.7 28228.9C14078.4 28299.8 14025.7 28346.9 13922 28363.6L13922.1 28364.6ZM13717.9 28338.1C13785.4 28372.9 13841.6 28377.6 13922.1 28364.6L13922 28363.6C13841.6 28376.6 13785.7 28371.9 13718.3 28337.2L13717.9 28338.1ZM13605.5 28177.8C13615.8 28211.6 13625.1 28242 13641.2 28268.7C13657.3 28295.5 13680.2 28318.6 13717.9 28338.1L13718.3 28337.2C13680.9 28317.8 13658.1 28294.8 13642 28268.2C13626 28241.6 13616.8 28211.3 13606.5 28177.5L13605.5 28177.8ZM13596.9 28150.2C13600 28159.6 13602.8 28168.8 13605.5 28177.8L13606.5 28177.5C13603.7 28168.5 13600.9 28159.3 13597.9 28149.9L13596.9 28150.2ZM13652.3 27786.2C13651.8 27786 13651.8 27786 13651.8 27786C13651.8 27786 13651.8 27786 13651.8 27786C13651.8 27786 13651.8 27786 13651.8 27786.1C13651.8 27786.1 13651.8 27786.1 13651.8 27786.2C13651.7 27786.3 13651.6 27786.5 13651.5 27786.7C13651.4 27787.1 13651.1 27787.8 13650.7 27788.6C13650 27790.3 13649 27792.8 13647.7 27796.1C13645.1 27802.6 13641.4 27812 13637.1 27823.7C13628.5 27847.2 13617.6 27880 13608 27917C13588.8 27990.9 13575.1 28082 13596.9 28150.2L13597.9 28149.9C13576.1 28082 13589.8 27991.2 13609 27917.2C13618.5 27880.3 13629.5 27847.6 13638 27824.1C13642.3 27812.4 13646 27802.9 13648.6 27796.4C13649.9 27793.2 13650.9 27790.7 13651.7 27789C13652 27788.1 13652.3 27787.5 13652.5 27787.1C13652.6 27786.8 13652.6 27786.7 13652.7 27786.6C13652.7 27786.5 13652.7 27786.5 13652.7 27786.4C13652.7 27786.4 13652.7 27786.4 13652.7 27786.4C13652.7 27786.4 13652.7 27786.4 13652.7 27786.4C13652.7 27786.4 13652.7 27786.4 13652.3 27786.2Z" fill="black"/>
<path fill-rule="evenodd" clip-rule="evenodd" d="M12268.7 30870.1L12713.6 31304.5C12713.6 31304.5 12911.8 31214.7 13022.4 31135.9C13082.5 31093.1 13126.3 31067.7 13164.7 31045.5C13229.4 31008.1 13278.8 30979.6 13365 30891.3C13410.6 30844.5 13457.8 30803.4 13504.2 30763C13594.7 30684.2 13682.2 30608.1 13749 30498C13854.2 30324.3 13923.2 30041.5 13791.1 29818.8C13763 29771.4 13757.1 29758.8 13747.4 29750.7C13737.2 29742.3 13723 29738.7 13674.9 29705.4C13490.6 29577.4 13344.9 29553.2 13158.6 29576.7C12998.1 29597 12927.2 29668.3 12830 29766.4C12818.6 29777.8 12806.9 29789.6 12794.6 29801.8C12668.3 29926.6 12612.5 30017.7 12555.6 30194.3C12532.4 30266.3 12534.7 30333.8 12537 30399.8C12539.6 30477 12542.1 30552.1 12503.6 30629.5C12443.9 30749.5 12268.7 30870.1 12268.7 30870.1ZM12160.3 30981.2L12594.4 31405C12594.4 31405 12511.7 31539.6 12422 31581.5C12330.3 31624.3 12261.7 31641.1 12146 31610.2C12142.7 31609.3 12139.4 31608.5 12136.2 31607.6C12057.8 31586.8 11997.7 31570.8 11940 31502.4C11874.7 31424.9 11879.5 31356.9 11885.3 31273.6C11885.6 31269.7 11885.8 31265.9 11886.1 31262C11897.6 31093.2 12160.3 30981.2 12160.3 30981.2Z" fill="black" fill-opacity="0.81"/>
<defs>
<filter id="filter0_d" x="11773" y="5694" width="7157" height="7087" filterUnits="userSpaceOnUse" color-interpolation-filters="sRGB">
<feFlood flood-opacity="0" result="BackgroundImageFix"/>
<feColorMatrix in="SourceAlpha" type="matrix" values="0 0 0 0 0 0 0 0 0 0 0 0 0 0 0 0 0 0 127 0"/>
<feOffset dy="4"/>
<feGaussianBlur stdDeviation="2"/>
<feColorMatrix type="matrix" values="0 0 0 0 0 0 0 0 0 0 0 0 0 0 0 0 0 0 0.25 0"/>
<feBlend mode="normal" in2="BackgroundImageFix" result="effect1_dropShadow"/>
<feBlend mode="normal" in="SourceGraphic" in2="effect1_dropShadow" result="shape"/>
</filter>
<linearGradient id="paint0_linear" x1="23377.3" y1="3225.9" x2="34531.5" y2="32214.3" gradientUnits="userSpaceOnUse">
<stop stop-color="#F0EFEE"/>
<stop offset="0.0001" stop-color="#EBCEB4" stop-opacity="0.58"/>
<stop offset="0.0002" stop-color="#FEEEDF" stop-opacity="0.56944"/>
<stop offset="0.119792" stop-color="#D38339" stop-opacity="0.495466"/>
<stop offset="1" stop-color="#C99E77" stop-opacity="0"/>
</linearGradient>
</defs>
</svg>
