<svg width="21971" height="32239" viewBox="0 0 21971 32239" fill="none" xmlns="http://www.w3.org/2000/svg">
<path d="M11170.1 15205.4C11512.8 14889.9 11924 14511.4 12334.1 14453.2C12433 14439.2 12461 14453.2 12461 14453.2C12461 14453.2 12018.3 15125.3 11642.1 15587C11283.8 16026.6 10985.7 16457.5 10917.1 17110.1C10867.2 17584 10656.8 17949.2 10917.1 18271.1C11823.6 19392.3 14132.6 20082.9 15472.7 20513.1C17091 21032.7 19008.1 22627.2 19863.7 24568.2C20323.1 25610.6 20085.1 25296 20207.3 26500.3C20454 28932.8 18046 32239 18046 32239H0C0 32239 1381.02 31048.3 2277.37 30310.7C5987.69 27257.8 14061.1 28217.2 11642.1 23318.9C10536.8 21080.6 7562.9 21629.4 8091.52 19030C8332.34 17845.8 9054.9 17110.1 9054.9 17110.1C9779.97 16144.5 10321.3 15986.7 11161.6 15213.2L11170.1 15205.4Z" fill="url(#paint0_linear)"/>
<g filter="url(#filter0_d)">
<path d="M15351.5 5694L18926 12773H11777L15351.5 5694Z" fill="#0285B4"/>
</g>
<path d="M13770 8616.09L15023.6 11916L15547 8157.52L15353.7 5699L14462.5 7462.59L13770 8616.09Z" fill="#007199" stroke="black"/>
<path d="M11776 997L17465.8 14470H6086.21L11776 997Z" fill="#434997"/>
<rect x="11764" y="3" width="54" height="982" fill="#C4C4C4"/>
<path d="M12668 264.5L11809.2 528.205L11809.2 0.795211L12668 264.5Z" fill="#DA0000"/>
<path d="M11028.9 5788.49L11785.6 1112.42L11750.6 1070L8088.23 9730.32L8070.73 9796.98L7825 10358.5C8657.79 11766.4 10323.4 14554.3 10323.4 14442.8C10323.4 14331.3 12032.9 14396.3 12887.7 14442.8L13769 12894.5L13878 12349.1L13942 12126.9L10814.8 9127.38L12141.8 7779.1L11028.9 5788.49Z" fill="#2B317D" stroke="black"/>
<path d="M4884.04 11685.1L5947.15 10063.2L6380.2 9319.73C6380.2 9319.73 6617.57 8812.34 6813.25 8576.24C6982.09 8372.54 7079.62 8181.57 7285.87 8170.53C7505.95 8158.75 7623.73 8344.71 7797.79 8576.24C8033.68 8890.04 8040.68 9262.24 8230.55 9657.5C8438.05 10089.4 8594.51 10268.5 8821.05 10671.3C9040.18 11060.9 9136 11326.2 9372.25 11685.1C9653.4 12112.2 10159.8 12631.4 10159.8 12631.4C10159.8 12631.4 10526.5 13207.7 10790.1 13510.3C11093.2 13858.2 11616.9 14254.3 11616.9 14254.3L12286 14660H1931L3623.9 13104.6L4884.04 11685.1Z" fill="#295FA6" stroke="black"/>
<path d="M5927.15 11718.2L7318 8194.25V8170H7236.82L7155.65 8194.25L7002.88 8307.4L6725.48 8670.1L6513.27 9042.89L6302.34 9448.02L5927.15 10073.4L5462.46 10774.5L4852.05 11718.2L3512.97 13199.2L1931 14647H6302.34L5927.15 11718.2Z" fill="#1C529A" stroke="black"/>
<path fill-rule="evenodd" clip-rule="evenodd" d="M11504.5 14569.1L11514.9 14553.6C11527.6 14544.6 11551.5 14536.3 11586 14528.8L11534.2 14660H21926.7H21957.8L21956.2 14658.6C21961.2 14658.7 21966.1 14658.8 21971 14659L21665 14330.8L21204.9 13928.8L20678.8 13175.4L20161.9 12406.9L19645 11638.3L19294.1 11288.9L18812.9 11076.8L18311.9 10965.8H18029H17669.4L17342.9 11076.8L16931.7 11367.7L16076.4 12070.6L15452.5 12774.5L15090.3 13175.4L14755.2 12774.5L14379.7 12498.8L14005.6 12372.6H13348.6L12855.5 12774.5L12427.9 13175.4L11934.8 13928.8L11674.1 14316.7L11669.8 14316.6L11663.6 14332.3L11514.9 14553.6C11508 14558.5 11504.5 14563.7 11504.5 14569.1Z" fill="#3EC9BB"/>
<path d="M11521.3 14552L12435.2 13194.7L12484.8 13129.1L12573.4 13045.3L12732.7 12899L12723.5 12918.2L12653.4 13061.5L12591.2 13272.4L12573.4 13434.9V13656.9L12919.2 14099.9L13388.1 14423.9L14292 14659H11436L11453.2 14636.8L11521.3 14552Z" fill="#13B8A8"/>
<path d="M12509.2 13129.1L12435.2 13194.7M12435.2 13194.7L11521.3 14552L11453.2 14636.8L11436 14659H14292L13388.1 14423.9L12919.2 14099.9L12573.4 13656.9V13434.9L12591.2 13272.4L12653.4 13061.5L12723.5 12918.2L12732.7 12899L12573.4 13045.3L12484.8 13129.1L12435.2 13194.7Z" stroke="black"/>
<path d="M15915.8 13892.3C15578.6 13639.2 15100 13173.4 15100 13173.4L15608.9 12622.9L16071.6 12102.8L16534.9 11704.9L16997.5 11329.2L17156.8 11208C17156.8 11208 17051.6 11505.2 16997.5 11704.9C16935.4 11934.1 16891.1 12062.6 16866.7 12307.8C16844.8 12527.4 16838.4 12658.6 16866.7 12876.4C16911.8 13223.4 16995.1 13413.2 17156.8 13666.2C17442.2 14112.7 18148.9 14172.2 18148.9 14172.2C18379.3 14264.1 18744.4 14372.2 18744.4 14372.2C18991.3 14446.2 19379.5 14538.8 19379.5 14538.8L19588.4 14623.6L19669 14656L17222.9 14660C16685.9 14422.8 16393.7 14251.2 15915.8 13892.3Z" fill="#13B8A8"/>
<path d="M11817.3 985H11765.8L10977 2861.81L11466.6 2602.83L11817.3 3073L12102.7 2458.7L12554 2746.2L11817.3 985Z" fill="white"/>
<path d="M15360.6 5694H15313.2L14589 7146L15040.2 6634.8L15499.6 6959.49L15568.9 6634.8L16037 7056.55L15360.6 5694Z" fill="white"/>
<path d="M7052.39 8241.08L7276.19 8115H7330.54L7460.34 8194.68L7580.55 8280.41L7794.12 8546.69L7917.53 8750.43L8010.89 8992.49L8122.79 9378.79L8243 9672.3L8211.67 9643.05L7863.18 9378.79L7398.32 9989L6772.96 9643.05L6494.81 9806.44L5966 9989L6407.84 9235.57L6597.11 8891.63L6772.96 8593.08L7052.39 8241.08Z" fill="white"/>
<path d="M17270.5 11128.5L16902 11389.9C16902 11389.9 17170.1 11370.7 17341.2 11389.9C17572.8 11416 17733 11351.4 17927 11546.4C18053 11672.9 18060.4 11854.5 18183.9 11986.4C18435.3 12255 18666.8 12253.5 18963.3 12133.8C19061.1 12094.3 19203.7 11986.4 19203.7 11986.4C19203.7 11986.4 19323.6 11716.4 19443.4 11660.4C19527.3 11621.3 19668 11660.4 19668 11660.4L19333.1 11326.4L19203.7 11230.5L18839.8 11077.1L18308.1 10962H17927H17680.7L17555.2 10994.3L17341.2 11077.1L17270.5 11128.5Z" fill="white" stroke="white"/>
<path d="M12892 12754.1L13170.6 12481.6L13224 12427.9L13385.8 12341.7L13480.7 12308H13666.9H13955L14356.9 12427.9L14632 12587.9L14729.9 12687.8L14983 13036.1C14983 13036.1 14876.6 12995.3 14813.2 13036.1C14722.6 13094.4 14617.5 13036.1 14617.5 13036.1C14617.5 13036.1 14205.7 12712.9 14131.8 12754.1C13976.7 12840.5 13815.5 12951.2 13667.9 12918.6C13697.1 12959.3 13679.1 12945.4 13644 12911.9C13586.9 12892.9 13532.1 12850.5 13480.7 12774.8C13402.7 12755 13321.8 12769.3 13224 12754.1C13094.7 12734.1 12892 12754.1 12892 12754.1Z" fill="white" stroke="white"/>
<path fill-rule="evenodd" clip-rule="evenodd" d="M14573.6 24609.4L14929 24379.4C14929 24379.4 14900.7 24343.6 14881.6 24322.9C14854.7 24293.8 14829.8 24210.3 14829.8 24210.3C14829.8 24210.3 14806.6 24148.4 14794.9 24085C14780.9 24008.8 14759.5 23889.8 14759.5 23889.8C14759.5 23889.8 14745.3 23823.9 14726.9 23770.1C14710.9 23723.5 14635 23623.5 14635 23623.5C14635 23623.5 14552 23489.3 14432.8 23475.8C14356.4 23467.1 14271.4 23485.3 14271.4 23485.3C14271.4 23485.3 14159.1 23568.8 14141.2 23607C14118.9 23654.7 14119.6 23692.5 14120.5 23738.3C14120.8 23753.8 14121.1 23770.2 14120.5 23788.2C14117.6 23881.2 14125.9 23931.5 14158.8 24020.6C14187.9 24099.2 14212 24137.1 14260.1 24207C14277 24231.6 14292 24254.2 14306 24275.4C14361.5 24359.1 14402.5 24421 14492.8 24498.2C14528.5 24528.7 14573.6 24609.4 14573.6 24609.4ZM14631.3 24709.2L14991.5 24462.1C14991.5 24462.1 15032.4 24533.1 15057.5 24579.2C15067.9 24598.2 15078.5 24613.9 15088.4 24628.8C15108.5 24658.8 15126.1 24685.1 15135.1 24727.2C15149.9 24796.2 15155 24846.7 15117.5 24904.1C15088.6 24948.5 15059.8 24971.8 15006.9 24983.8C14947.9 24997.1 14906.8 24975 14855 24947.2C14848.1 24943.5 14841 24939.7 14833.7 24935.9C14728.4 24880.8 14631.3 24709.2 14631.3 24709.2Z" fill="#030303" fill-opacity="0.72"/>
<path d="M14929 24379.4L14929.3 24379.8L14929.7 24379.5L14929.4 24379.1L14929 24379.4ZM14573.6 24609.4L14573.1 24609.7L14573.4 24610.2L14573.8 24609.9L14573.6 24609.4ZM14881.6 24322.9L14881.2 24323.3L14881.6 24322.9ZM14829.8 24210.3L14830.3 24210.2L14830.3 24210.2L14830.2 24210.1L14829.8 24210.3ZM14794.9 24085L14794.5 24085.1L14794.9 24085ZM14759.5 23889.8L14760 23889.8L14760 23889.7L14760 23889.7L14759.5 23889.8ZM14726.9 23770.1L14726.4 23770.3L14726.9 23770.1ZM14635 23623.5L14634.5 23623.8L14634.5 23623.8L14634.6 23623.9L14635 23623.5ZM14432.8 23475.8L14432.8 23476.3L14432.8 23475.8ZM14271.4 23485.3L14271.3 23484.9L14271.2 23484.9L14271.1 23484.9L14271.4 23485.3ZM14141.2 23607L14140.8 23606.8L14141.2 23607ZM14120.5 23738.3L14121 23738.3L14120.5 23738.3ZM14120.5 23788.2L14121 23788.3L14120.5 23788.2ZM14158.8 24020.6L14159.3 24020.4L14158.8 24020.6ZM14260.1 24207L14259.6 24207.3L14260.1 24207ZM14306 24275.4L14305.6 24275.6L14306 24275.4ZM14492.8 24498.2L14493.2 24497.8L14492.8 24498.2ZM14991.5 24462.1L14991.9 24461.9L14991.6 24461.4L14991.2 24461.7L14991.5 24462.1ZM14631.3 24709.2L14631 24708.8L14630.6 24709L14630.9 24709.4L14631.3 24709.2ZM15057.5 24579.2L15057.9 24578.9L15057.5 24579.2ZM15088.4 24628.8L15088.8 24628.5L15088.4 24628.8ZM15135.1 24727.2L15134.6 24727.3L15135.1 24727.2ZM15117.5 24904.1L15118 24904.3L15117.5 24904.1ZM15006.9 24983.8L15006.7 24983.3L15006.9 24983.8ZM14855 24947.2L14854.7 24947.6L14855 24947.2ZM14833.7 24935.9L14833.5 24936.3L14833.7 24935.9ZM14928.7 24379L14573.3 24609L14573.8 24609.9L14929.3 24379.8L14928.7 24379ZM14881.2 24323.3C14890.8 24333.6 14902.6 24347.7 14912.1 24359.2C14916.8 24365 14920.9 24370.1 14923.9 24373.8C14925.4 24375.6 14926.5 24377.1 14927.4 24378.1C14927.8 24378.6 14928.1 24379 14928.3 24379.3C14928.4 24379.4 14928.5 24379.5 14928.5 24379.6C14928.6 24379.6 14928.6 24379.7 14928.6 24379.7C14928.6 24379.7 14928.6 24379.7 14928.6 24379.7C14928.6 24379.7 14928.6 24379.7 14928.6 24379.7C14928.6 24379.7 14928.6 24379.7 14928.6 24379.7C14928.6 24379.7 14928.6 24379.7 14929 24379.4C14929.4 24379.1 14929.4 24379.1 14929.4 24379.1C14929.4 24379.1 14929.4 24379.1 14929.4 24379.1C14929.4 24379.1 14929.4 24379.1 14929.4 24379.1C14929.4 24379.1 14929.4 24379.1 14929.4 24379.1C14929.4 24379.1 14929.3 24379 14929.3 24379C14929.3 24378.9 14929.2 24378.8 14929.1 24378.7C14928.9 24378.4 14928.5 24378 14928.1 24377.5C14927.3 24376.5 14926.1 24375 14924.7 24373.2C14921.7 24369.5 14917.6 24364.4 14912.8 24358.6C14903.4 24347 14891.5 24332.9 14882 24322.6L14881.2 24323.3ZM14829.8 24210.3C14829.3 24210.5 14829.3 24210.5 14829.3 24210.5C14829.3 24210.5 14829.3 24210.5 14829.3 24210.5C14829.3 24210.5 14829.3 24210.5 14829.3 24210.5C14829.3 24210.5 14829.3 24210.5 14829.3 24210.5C14829.3 24210.6 14829.3 24210.6 14829.4 24210.7C14829.4 24210.9 14829.5 24211.1 14829.6 24211.4C14829.8 24212 14830.1 24212.9 14830.4 24214.1C14831.2 24216.5 14832.2 24219.8 14833.6 24224C14836.4 24232.3 14840.3 24243.6 14845.1 24255.9C14849.9 24268.2 14855.6 24281.3 14861.7 24293.3C14867.8 24305.2 14874.4 24315.9 14881.2 24323.3L14882 24322.6C14875.3 24315.4 14868.7 24304.7 14862.6 24292.8C14856.5 24280.9 14850.8 24267.8 14846.1 24255.5C14841.3 24243.3 14837.3 24231.9 14834.6 24223.7C14833.2 24219.5 14832.1 24216.2 14831.4 24213.8C14831 24212.6 14830.7 24211.7 14830.5 24211.1C14830.4 24210.8 14830.4 24210.6 14830.3 24210.4C14830.3 24210.3 14830.3 24210.3 14830.3 24210.2C14830.3 24210.2 14830.3 24210.2 14830.3 24210.2C14830.3 24210.2 14830.3 24210.2 14830.3 24210.2C14830.3 24210.2 14830.3 24210.2 14830.3 24210.2C14830.3 24210.2 14830.3 24210.2 14829.8 24210.3ZM14794.5 24085.1C14800.3 24116.8 14809 24148.2 14816.3 24171.6C14819.9 24183.3 14823.1 24193 14825.5 24199.8C14826.7 24203.2 14827.6 24205.9 14828.3 24207.7C14828.6 24208.6 14828.9 24209.3 14829 24209.8C14829.1 24210 14829.2 24210.2 14829.2 24210.3C14829.3 24210.4 14829.3 24210.4 14829.3 24210.4C14829.3 24210.5 14829.3 24210.5 14829.3 24210.5C14829.3 24210.5 14829.3 24210.5 14829.3 24210.5C14829.3 24210.5 14829.3 24210.5 14829.3 24210.5C14829.3 24210.5 14829.3 24210.5 14829.8 24210.3C14830.2 24210.1 14830.2 24210.1 14830.2 24210.1C14830.2 24210.1 14830.2 24210.1 14830.2 24210.1C14830.2 24210.1 14830.2 24210.1 14830.2 24210.1C14830.2 24210.1 14830.2 24210.1 14830.2 24210.1C14830.2 24210.1 14830.2 24210 14830.2 24210C14830.1 24209.8 14830.1 24209.7 14830 24209.4C14829.8 24209 14829.6 24208.3 14829.2 24207.4C14828.6 24205.5 14827.6 24202.9 14826.4 24199.5C14824.1 24192.7 14820.8 24183 14817.2 24171.3C14810 24147.9 14801.3 24116.6 14795.4 24084.9L14794.5 24085.1ZM14759.5 23889.8C14759 23889.9 14759 23889.9 14759 23889.9C14759 23889.9 14759 23889.9 14759 23889.9C14759 23889.9 14759 23889.9 14759 23889.9C14759 23890 14759 23890 14759 23890C14759 23890.1 14759.1 23890.2 14759.1 23890.3C14759.1 23890.5 14759.2 23890.8 14759.3 23891.3C14759.4 23892.2 14759.7 23893.5 14760 23895.2C14760.6 23898.6 14761.5 23903.5 14762.6 23909.7C14764.8 23922.1 14767.9 23939.3 14771.5 23958.9C14778.6 23998.2 14787.4 24047 14794.5 24085.1L14795.4 24084.9C14788.4 24046.8 14779.6 23998 14772.5 23958.8C14768.9 23939.1 14765.8 23921.9 14763.6 23909.5C14762.5 23903.4 14761.6 23898.4 14761 23895C14760.6 23893.3 14760.4 23892 14760.2 23891.1C14760.2 23890.7 14760.1 23890.3 14760.1 23890.1C14760 23890 14760 23889.9 14760 23889.8C14760 23889.8 14760 23889.8 14760 23889.8C14760 23889.8 14760 23889.8 14760 23889.8C14760 23889.8 14760 23889.8 14760 23889.8C14760 23889.8 14760 23889.8 14759.5 23889.8ZM14726.4 23770.3C14735.6 23797.2 14743.8 23827.1 14749.6 23850.3C14752.5 23861.9 14754.9 23871.8 14756.5 23878.8C14757.3 23882.3 14758 23885.1 14758.4 23887C14758.6 23888 14758.8 23888.7 14758.9 23889.2C14758.9 23889.4 14759 23889.6 14759 23889.8C14759 23889.8 14759 23889.9 14759 23889.9C14759 23889.9 14759 23889.9 14759 23889.9C14759 23889.9 14759 23889.9 14759 23889.9C14759 23889.9 14759 23889.9 14759 23889.9C14759 23889.9 14759 23889.9 14759.5 23889.8C14760 23889.7 14760 23889.7 14760 23889.7C14760 23889.7 14760 23889.7 14760 23889.7C14760 23889.7 14760 23889.7 14760 23889.7C14760 23889.7 14760 23889.7 14760 23889.7C14760 23889.7 14760 23889.6 14760 23889.5C14759.9 23889.4 14759.9 23889.2 14759.8 23889C14759.7 23888.5 14759.6 23887.7 14759.4 23886.8C14758.9 23884.9 14758.3 23882.1 14757.5 23878.6C14755.9 23871.6 14753.5 23861.6 14750.6 23850C14744.7 23826.8 14736.6 23796.9 14727.4 23770L14726.4 23770.3ZM14635 23623.5C14634.6 23623.9 14634.6 23623.9 14634.6 23623.9C14634.6 23623.9 14634.6 23623.9 14634.6 23623.9C14634.6 23623.9 14634.6 23623.9 14634.6 23623.9C14634.6 23623.9 14634.6 23623.9 14634.6 23623.9C14634.6 23624 14634.7 23624 14634.8 23624.1C14634.9 23624.3 14635.1 23624.6 14635.4 23625C14636 23625.7 14636.8 23626.8 14637.8 23628.2C14640 23631.1 14643 23635.1 14646.7 23640.2C14654 23650.3 14664 23664.2 14674.5 23679.6C14695.5 23710.4 14718.5 23747 14726.4 23770.3L14727.4 23770C14719.4 23746.6 14696.3 23709.9 14675.4 23679.1C14664.9 23663.6 14654.9 23649.7 14647.5 23639.6C14643.8 23634.5 14640.8 23630.5 14638.7 23627.6C14637.6 23626.2 14636.8 23625.1 14636.2 23624.4C14635.9 23624 14635.7 23623.7 14635.6 23623.5C14635.5 23623.4 14635.4 23623.4 14635.4 23623.3C14635.4 23623.3 14635.4 23623.3 14635.4 23623.3C14635.4 23623.3 14635.4 23623.3 14635.4 23623.3C14635.4 23623.2 14635.4 23623.2 14635.4 23623.2C14635.4 23623.2 14635.4 23623.2 14635 23623.5ZM14432.8 23476.3C14492.2 23483 14542.6 23519.9 14578.2 23555.1C14596 23572.7 14610.1 23589.9 14619.7 23602.7C14624.5 23609.1 14628.2 23614.3 14630.7 23618C14632 23619.9 14632.9 23621.3 14633.6 23622.3C14633.9 23622.8 14634.1 23623.2 14634.3 23623.4C14634.4 23623.6 14634.4 23623.7 14634.5 23623.7C14634.5 23623.7 14634.5 23623.8 14634.5 23623.8C14634.5 23623.8 14634.5 23623.8 14634.5 23623.8C14634.5 23623.8 14634.5 23623.8 14634.5 23623.8C14634.5 23623.8 14634.5 23623.8 14635 23623.5C14635.4 23623.3 14635.4 23623.3 14635.4 23623.3C14635.4 23623.3 14635.4 23623.3 14635.4 23623.3C14635.4 23623.3 14635.4 23623.3 14635.4 23623.3C14635.4 23623.2 14635.3 23623.2 14635.3 23623.2C14635.3 23623.1 14635.2 23623 14635.1 23622.9C14635 23622.6 14634.7 23622.3 14634.4 23621.8C14633.8 23620.8 14632.8 23619.3 14631.6 23617.5C14629.1 23613.8 14625.4 23608.5 14620.5 23602.1C14610.9 23589.2 14596.8 23572 14578.9 23554.4C14543.3 23519.1 14492.6 23482.1 14432.9 23475.3L14432.8 23476.3ZM14271.4 23485.3C14271.5 23485.8 14271.5 23485.8 14271.5 23485.8C14271.5 23485.8 14271.5 23485.8 14271.5 23485.8C14271.5 23485.8 14271.5 23485.8 14271.5 23485.8C14271.6 23485.8 14271.6 23485.8 14271.6 23485.8C14271.6 23485.8 14271.7 23485.8 14271.8 23485.8C14271.9 23485.8 14272.2 23485.7 14272.5 23485.6C14273.1 23485.5 14274.1 23485.3 14275.3 23485.1C14277.8 23484.6 14281.4 23483.9 14286 23483.1C14295.1 23481.5 14308.1 23479.5 14323.5 23477.8C14354.3 23474.3 14394.6 23471.9 14432.8 23476.3L14432.9 23475.3C14394.6 23470.9 14354.2 23473.3 14323.4 23476.8C14308 23478.5 14295 23480.6 14285.8 23482.1C14281.2 23482.9 14277.6 23483.6 14275.1 23484.1C14273.9 23484.3 14272.9 23484.5 14272.3 23484.7C14272 23484.7 14271.7 23484.8 14271.6 23484.8C14271.5 23484.8 14271.4 23484.8 14271.4 23484.8C14271.4 23484.9 14271.3 23484.9 14271.3 23484.9C14271.3 23484.9 14271.3 23484.9 14271.3 23484.9C14271.3 23484.9 14271.3 23484.9 14271.3 23484.9C14271.3 23484.9 14271.3 23484.9 14271.4 23485.3ZM14141.7 23607.2C14146.1 23597.8 14156.4 23585.4 14169.5 23572.2C14182.5 23559.1 14198.2 23545.1 14213.4 23532.2C14228.5 23519.4 14243.1 23507.8 14253.9 23499.4C14259.3 23495.2 14263.8 23491.8 14266.9 23489.4C14268.4 23488.2 14269.6 23487.3 14270.5 23486.7C14270.9 23486.4 14271.2 23486.1 14271.4 23486C14271.5 23485.9 14271.6 23485.9 14271.6 23485.8C14271.7 23485.8 14271.7 23485.8 14271.7 23485.8C14271.7 23485.8 14271.7 23485.8 14271.7 23485.8C14271.7 23485.8 14271.7 23485.8 14271.7 23485.8C14271.7 23485.8 14271.7 23485.7 14271.4 23485.3C14271.1 23484.9 14271.1 23484.9 14271.1 23484.9C14271.1 23484.9 14271.1 23484.9 14271.1 23485C14271.1 23485 14271.1 23485 14271.1 23485C14271.1 23485 14271.1 23485 14271 23485C14271 23485 14270.9 23485.1 14270.8 23485.2C14270.6 23485.3 14270.3 23485.6 14269.9 23485.9C14269 23486.5 14267.8 23487.4 14266.3 23488.6C14263.2 23491 14258.7 23494.4 14253.3 23498.6C14242.5 23507 14227.9 23518.6 14212.7 23531.5C14197.5 23544.3 14181.8 23558.3 14168.8 23571.5C14155.7 23584.7 14145.3 23597.2 14140.8 23606.8L14141.7 23607.2ZM14121 23738.3C14120.1 23692.4 14119.4 23654.8 14141.7 23607.2L14140.8 23606.8C14118.4 23654.6 14119.1 23692.5 14120 23738.3L14121 23738.3ZM14121 23788.3C14121.6 23770.2 14121.3 23753.8 14121 23738.3L14120 23738.3C14120.3 23753.8 14120.6 23770.2 14120 23788.2L14121 23788.3ZM14159.3 24020.4C14126.4 23931.4 14118.1 23881.1 14121 23788.3L14120 23788.2C14117.1 23881.2 14125.4 23931.6 14158.4 24020.7L14159.3 24020.4ZM14260.5 24206.7C14212.4 24136.9 14188.4 24099 14159.3 24020.4L14158.4 24020.7C14187.5 24099.4 14211.6 24137.4 14259.6 24207.3L14260.5 24206.7ZM14306.4 24275.1C14292.4 24253.9 14277.4 24231.3 14260.5 24206.7L14259.6 24207.3C14276.6 24231.8 14291.5 24254.4 14305.6 24275.6L14306.4 24275.1ZM14493.2 24497.8C14402.9 24420.7 14361.9 24358.9 14306.4 24275.1L14305.6 24275.6C14361.1 24359.4 14402.2 24421.4 14492.5 24498.6L14493.2 24497.8ZM14573.6 24609.4C14574 24609.2 14574 24609.2 14574 24609.2C14574 24609.2 14574 24609.2 14574 24609.2C14574 24609.2 14574 24609.2 14574 24609.2C14574 24609.2 14574 24609.2 14574 24609.1C14573.9 24609.1 14573.9 24609 14573.9 24609C14573.8 24608.8 14573.7 24608.6 14573.5 24608.3C14573.1 24607.7 14572.6 24606.8 14572 24605.7C14570.7 24603.4 14568.8 24600.1 14566.4 24596.1C14561.6 24588 14554.9 24577 14547 24565C14531.3 24541 14511.1 24513.1 14493.2 24497.8L14492.5 24498.6C14510.3 24513.7 14530.4 24541.5 14546.2 24565.5C14554 24577.5 14560.8 24588.6 14565.5 24596.6C14567.9 24600.6 14569.8 24603.9 14571.1 24606.2C14571.8 24607.3 14572.3 24608.2 14572.6 24608.8C14572.8 24609.1 14572.9 24609.3 14573 24609.5C14573 24609.5 14573.1 24609.6 14573.1 24609.6C14573.1 24609.7 14573.1 24609.7 14573.1 24609.7C14573.1 24609.7 14573.1 24609.7 14573.1 24609.7C14573.1 24609.7 14573.1 24609.7 14573.1 24609.7C14573.1 24609.7 14573.1 24609.7 14573.6 24609.4ZM14991.2 24461.7L14631 24708.8L14631.6 24709.6L14991.8 24462.5L14991.2 24461.7ZM15057.9 24578.9C15045.4 24555.9 15028.9 24526.6 15015.5 24503.1C15008.8 24491.4 15002.9 24481.1 14998.7 24473.7C14996.6 24470 14994.9 24467 14993.7 24465C14993.1 24464 14992.7 24463.2 14992.4 24462.7C14992.2 24462.4 14992.1 24462.2 14992 24462.1C14992 24462 14992 24462 14991.9 24461.9C14991.9 24461.9 14991.9 24461.9 14991.9 24461.9C14991.9 24461.9 14991.9 24461.9 14991.9 24461.9C14991.9 24461.9 14991.9 24461.9 14991.9 24461.9C14991.9 24461.9 14991.9 24461.9 14991.5 24462.1C14991 24462.4 14991 24462.4 14991 24462.4C14991 24462.4 14991 24462.4 14991 24462.4C14991.1 24462.4 14991.1 24462.4 14991.1 24462.4C14991.1 24462.4 14991.1 24462.4 14991.1 24462.4C14991.1 24462.5 14991.1 24462.5 14991.2 24462.6C14991.2 24462.7 14991.4 24462.9 14991.5 24463.2C14991.8 24463.7 14992.3 24464.5 14992.9 24465.5C14994 24467.5 14995.7 24470.5 14997.8 24474.2C15002.1 24481.6 15007.9 24491.9 15014.6 24503.6C15028 24527.1 15044.5 24556.4 15057.1 24579.4L15057.9 24578.9ZM15088.8 24628.5C15078.9 24613.7 15068.3 24597.9 15057.9 24578.9L15057.1 24579.4C15067.5 24598.4 15078 24614.2 15088 24629.1L15088.8 24628.5ZM15135.6 24727C15126.6 24684.9 15108.9 24658.5 15088.8 24628.5L15088 24629.1C15108.1 24659 15125.7 24685.3 15134.6 24727.3L15135.6 24727ZM15118 24904.3C15155.5 24846.8 15150.3 24796.1 15135.6 24727L15134.6 24727.3C15149.4 24796.2 15154.5 24846.6 15117.1 24903.8L15118 24904.3ZM15007 24984.3C15033.5 24978.3 15054 24969.4 15071.5 24956.5C15089 24943.6 15103.5 24926.6 15118 24904.3L15117.1 24903.8C15102.7 24926 15088.2 24942.8 15070.9 24955.7C15053.5 24968.5 15033.1 24977.3 15006.7 24983.3L15007 24984.3ZM14854.7 24947.6C14906.6 24975.5 14947.8 24997.7 15007 24984.3L15006.7 24983.3C14948 24996.6 14907.1 24974.6 14855.2 24946.7L14854.7 24947.6ZM14833.5 24936.3C14840.8 24940.1 14847.9 24943.9 14854.7 24947.6L14855.2 24946.7C14848.3 24943 14841.3 24939.3 14833.9 24935.4L14833.5 24936.3ZM14631.3 24709.2C14630.9 24709.4 14630.9 24709.4 14630.9 24709.4C14630.9 24709.4 14630.9 24709.4 14630.9 24709.4C14630.9 24709.4 14630.9 24709.4 14630.9 24709.5C14630.9 24709.5 14630.9 24709.5 14630.9 24709.6C14631 24709.6 14631 24709.8 14631.1 24709.9C14631.3 24710.2 14631.6 24710.7 14632 24711.4C14632.7 24712.6 14633.8 24714.5 14635.2 24716.9C14638.1 24721.7 14642.3 24728.6 14647.7 24737.1C14658.4 24754.1 14673.9 24777.3 14692.6 24802.2C14730.1 24852 14780.7 24908.7 14833.5 24936.3L14833.9 24935.4C14781.4 24907.9 14730.8 24851.4 14693.4 24801.6C14674.7 24776.7 14659.3 24753.5 14648.5 24736.6C14643.2 24728.1 14639 24721.2 14636.1 24716.4C14634.7 24714 14633.6 24712.1 14632.8 24710.9C14632.5 24710.2 14632.2 24709.7 14632 24709.4C14631.9 24709.3 14631.8 24709.1 14631.8 24709.1C14631.8 24709 14631.8 24709 14631.7 24709C14631.7 24709 14631.7 24708.9 14631.7 24708.9C14631.7 24708.9 14631.7 24708.9 14631.7 24708.9C14631.7 24708.9 14631.7 24708.9 14631.3 24709.2Z" fill="black"/>
<path fill-rule="evenodd" clip-rule="evenodd" d="M9598.57 30924.2L10224.6 31399.3C10224.6 31399.3 10269.4 31346.6 10293.4 31312C10327.2 31263.2 10457.4 31202.7 10457.4 31202.7C10457.4 31202.7 10551 31150.6 10654.3 31115.6C10778.6 31073.4 10973 31008.4 10973 31008.4C10973 31008.4 11079.1 30968.8 11161.6 30926.2C11233 30889.2 11359.6 30746.8 11359.6 30746.8C11359.6 30746.8 11541.8 30584.3 11490.4 30400.2C11457.3 30282 11371.8 30158.4 11371.8 30158.4C11371.8 30158.4 11155.2 30011.2 11077.2 29994.6C10979.8 29974 10914.3 29985.4 10834.7 29999.2C10807.9 30003.9 10779.4 30008.9 10747.5 30013C10583.3 30034.1 10500.6 30060.4 10365.8 30134.7C10246.8 30200.3 10195.7 30247.1 10104 30339.1C10071.7 30371.5 10041.7 30400.3 10013.5 30427.4C9902.16 30534.5 9819.88 30613.5 9742.04 30771.4C9711.3 30833.8 9598.57 30924.2 9598.57 30924.2ZM9460.74 31038.9L10119.5 31516.6C10119.5 31516.6 10021.2 31597.9 9956.64 31648.6C9929.96 31669.6 9909.08 31689.9 9889.37 31709.1C9849.71 31747.7 9814.83 31781.6 9747.04 31806.7C9635.76 31848 9550.71 31869.6 9426.9 31828.6C9331.07 31796.9 9272.08 31759.7 9217.81 31682.9C9157.36 31597.3 9170.02 31529 9185.99 31442.9C9188.11 31431.4 9190.29 31419.7 9192.36 31407.6C9222.16 31233 9460.74 31038.9 9460.74 31038.9Z" fill="#030303" fill-opacity="0.8"/>
<path d="M10224.6 31399.3L10224.3 31399.7L10224.7 31400L10225 31399.6L10224.6 31399.3ZM9598.57 30924.2L9598.26 30923.8L9597.76 30924.2L9598.27 30924.6L9598.57 30924.2ZM10293.4 31312L10293.8 31312.3L10293.4 31312ZM10457.4 31202.7L10457.6 31203.1L10457.6 31203.1L10457.6 31203.1L10457.4 31202.7ZM10654.3 31115.6L10654.2 31115.1L10654.3 31115.6ZM10973 31008.4L10973.1 31008.9L10973.1 31008.9L10973.1 31008.9L10973 31008.4ZM11161.6 30926.2L11161.8 30926.6L11161.6 30926.2ZM11359.6 30746.8L11359.3 30746.4L11359.3 30746.4L11359.3 30746.4L11359.6 30746.8ZM11490.4 30400.2L11489.9 30400.3L11490.4 30400.2ZM11371.8 30158.4L11372.3 30158.1L11372.2 30158L11372.1 30158L11371.8 30158.4ZM11077.2 29994.6L11077.3 29994.2L11077.3 29994.2L11077.2 29994.6ZM10834.7 29999.2L10834.6 29998.7L10834.7 29999.2ZM10747.5 30013L10747.6 30013.5L10747.5 30013ZM10365.8 30134.7L10366.1 30135.1L10365.8 30134.7ZM10104 30339.1L10103.6 30338.7L10104 30339.1ZM10013.5 30427.4L10013.2 30427L10013.5 30427.4ZM9742.04 30771.4L9741.59 30771.2L9742.04 30771.4ZM10119.5 31516.6L10119.8 31517L10120.3 31516.5L10119.8 31516.2L10119.5 31516.6ZM9460.74 31038.9L9461.04 31038.5L9460.73 31038.3L9460.43 31038.5L9460.74 31038.9ZM9956.64 31648.6L9956.95 31649L9956.64 31648.6ZM9889.37 31709.1L9889.02 31708.7L9889.37 31709.1ZM9747.04 31806.7L9747.21 31807.2L9747.04 31806.7ZM9426.9 31828.6L9427.05 31828.2L9426.9 31828.6ZM9217.81 31682.9L9217.41 31683.2L9217.81 31682.9ZM9185.99 31442.9L9185.5 31442.8L9185.99 31442.9ZM9192.36 31407.6L9192.85 31407.7L9192.36 31407.6ZM10224.9 31398.9L9598.87 30923.8L9598.27 30924.6L10224.3 31399.7L10224.9 31398.9ZM10293 31311.7C10281 31329 10263.8 31350.8 10249.6 31368.3C10242.5 31377 10236.1 31384.7 10231.6 31390.2C10229.3 31392.9 10227.4 31395.1 10226.2 31396.6C10225.5 31397.4 10225 31398 10224.7 31398.4C10224.5 31398.6 10224.4 31398.7 10224.3 31398.8C10224.3 31398.9 10224.2 31398.9 10224.2 31398.9C10224.2 31398.9 10224.2 31398.9 10224.2 31398.9C10224.2 31398.9 10224.2 31399 10224.2 31399C10224.2 31399 10224.2 31399 10224.2 31399C10224.2 31399 10224.2 31399 10224.6 31399.3C10225 31399.6 10225 31399.6 10225 31399.6C10225 31399.6 10225 31399.6 10225 31399.6C10225 31399.6 10225 31399.6 10225 31399.6C10225 31399.6 10225 31399.6 10225 31399.6C10225 31399.5 10225 31399.5 10225.1 31399.5C10225.2 31399.3 10225.3 31399.2 10225.5 31399C10225.8 31398.6 10226.3 31398 10226.9 31397.3C10228.2 31395.8 10230 31393.6 10232.3 31390.8C10236.9 31385.3 10243.3 31377.7 10250.4 31368.9C10264.6 31351.4 10281.8 31329.6 10293.8 31312.3L10293 31311.7ZM10457.4 31202.7C10457.2 31202.2 10457.2 31202.2 10457.2 31202.2C10457.2 31202.2 10457.2 31202.2 10457.2 31202.2C10457.2 31202.2 10457.2 31202.2 10457.2 31202.2C10457.1 31202.2 10457.1 31202.2 10457.1 31202.3C10457 31202.3 10456.9 31202.3 10456.8 31202.4C10456.6 31202.5 10456.2 31202.7 10455.7 31202.9C10454.8 31203.4 10453.3 31204 10451.5 31204.9C10447.9 31206.7 10442.7 31209.2 10436.3 31212.4C10423.6 31218.9 10406.2 31228 10387.8 31238.6C10369.4 31249.2 10349.9 31261.4 10333 31273.9C10316 31286.5 10301.5 31299.4 10293 31311.7L10293.8 31312.3C10302.2 31300.2 10316.6 31287.3 10333.6 31274.7C10350.5 31262.2 10369.9 31250.1 10388.3 31239.5C10406.7 31228.9 10424 31219.8 10436.7 31213.3C10443.1 31210.1 10448.3 31207.6 10452 31205.8C10453.8 31204.9 10455.2 31204.3 10456.1 31203.8C10456.6 31203.6 10457 31203.4 10457.2 31203.3C10457.4 31203.2 10457.5 31203.2 10457.5 31203.2C10457.5 31203.1 10457.6 31203.1 10457.6 31203.1C10457.6 31203.1 10457.6 31203.1 10457.6 31203.1C10457.6 31203.1 10457.6 31203.1 10457.6 31203.1C10457.6 31203.1 10457.6 31203.1 10457.4 31202.7ZM10654.2 31115.1C10602.5 31132.6 10553.2 31154.4 10516.9 31171.8C10498.7 31180.5 10483.8 31188.1 10473.4 31193.5C10468.2 31196.3 10464.1 31198.4 10461.4 31199.9C10460 31200.7 10458.9 31201.2 10458.2 31201.6C10457.9 31201.8 10457.6 31202 10457.4 31202.1C10457.3 31202.1 10457.3 31202.2 10457.2 31202.2C10457.2 31202.2 10457.2 31202.2 10457.2 31202.2C10457.2 31202.2 10457.2 31202.2 10457.2 31202.2C10457.2 31202.2 10457.2 31202.2 10457.2 31202.2C10457.2 31202.2 10457.2 31202.2 10457.4 31202.7C10457.6 31203.1 10457.6 31203.1 10457.6 31203.1C10457.6 31203.1 10457.6 31203.1 10457.6 31203.1C10457.6 31203.1 10457.7 31203.1 10457.7 31203.1C10457.7 31203.1 10457.7 31203.1 10457.7 31203.1C10457.8 31203 10457.8 31203 10457.9 31203C10458.1 31202.9 10458.4 31202.7 10458.7 31202.5C10459.4 31202.1 10460.5 31201.5 10461.9 31200.8C10464.6 31199.3 10468.7 31197.1 10473.9 31194.4C10484.3 31189 10499.2 31181.4 10517.3 31172.7C10553.6 31155.3 10602.9 31133.6 10654.5 31116L10654.2 31115.1ZM10973 31008.4C10972.8 31007.9 10972.8 31007.9 10972.8 31007.9C10972.8 31007.9 10972.8 31007.9 10972.8 31007.9C10972.8 31007.9 10972.8 31007.9 10972.8 31007.9C10972.7 31007.9 10972.7 31007.9 10972.7 31008C10972.6 31008 10972.4 31008 10972.2 31008.1C10971.9 31008.2 10971.3 31008.4 10970.6 31008.7C10969.1 31009.1 10967 31009.9 10964.2 31010.8C10958.7 31012.7 10950.6 31015.4 10940.5 31018.7C10920.3 31025.5 10892.2 31034.9 10860.1 31045.7C10796 31067.2 10716.3 31094 10654.2 31115.1L10654.5 31116C10716.6 31095 10796.3 31068.2 10860.4 31046.7C10892.5 31035.9 10920.7 31026.4 10940.8 31019.7C10950.9 31016.3 10959 31013.6 10964.5 31011.7C10967.3 31010.8 10969.5 31010.1 10970.9 31009.6C10971.6 31009.4 10972.2 31009.2 10972.6 31009.1C10972.8 31009 10972.9 31008.9 10973 31008.9C10973 31008.9 10973.1 31008.9 10973.1 31008.9C10973.1 31008.9 10973.1 31008.9 10973.1 31008.9C10973.1 31008.9 10973.1 31008.9 10973.1 31008.9C10973.1 31008.9 10973.1 31008.9 10973 31008.4ZM11161.3 30925.7C11120.1 30947 11073 30967.6 11036.2 30982.8C11017.7 30990.4 11001.9 30996.7 10990.7 31001.1C10985 31003.3 10980.6 31005 10977.5 31006.1C10976 31006.7 10974.8 31007.2 10974 31007.5C10973.6 31007.6 10973.3 31007.7 10973.1 31007.8C10973 31007.8 10972.9 31007.9 10972.9 31007.9C10972.8 31007.9 10972.8 31007.9 10972.8 31007.9C10972.8 31007.9 10972.8 31007.9 10972.8 31007.9C10972.8 31007.9 10972.8 31007.9 10972.8 31007.9C10972.8 31007.9 10972.8 31007.9 10973 31008.4C10973.1 31008.9 10973.1 31008.9 10973.1 31008.9C10973.1 31008.9 10973.1 31008.9 10973.1 31008.9C10973.2 31008.9 10973.2 31008.9 10973.2 31008.9C10973.2 31008.8 10973.2 31008.8 10973.2 31008.8C10973.3 31008.8 10973.3 31008.8 10973.4 31008.7C10973.7 31008.7 10974 31008.6 10974.4 31008.4C10975.2 31008.1 10976.3 31007.7 10977.9 31007.1C10980.9 31005.9 10985.4 31004.2 10991 31002C11002.3 30997.6 11018.1 30991.3 11036.5 30983.7C11073.4 30968.5 11120.6 30947.9 11161.8 30926.6L11161.3 30925.7ZM11359.6 30746.8C11359.3 30746.4 11359.3 30746.4 11359.3 30746.4C11359.3 30746.4 11359.3 30746.4 11359.3 30746.4C11359.2 30746.4 11359.2 30746.4 11359.2 30746.5C11359.2 30746.5 11359.2 30746.5 11359.2 30746.5C11359.1 30746.6 11359 30746.7 11358.9 30746.8C11358.7 30747.1 11358.3 30747.5 11357.8 30748C11356.9 30749.1 11355.5 30750.6 11353.7 30752.6C11350.1 30756.6 11344.9 30762.3 11338.4 30769.3C11325.4 30783.2 11307.3 30802.1 11287 30822.2C11246.4 30862.5 11197 30907.3 11161.3 30925.7L11161.8 30926.6C11197.6 30908.1 11247.2 30863.2 11287.7 30823C11308 30802.8 11326.1 30783.9 11339.1 30769.9C11345.6 30763 11350.8 30757.3 11354.4 30753.3C11356.2 30751.3 11357.6 30749.8 11358.6 30748.7C11359 30748.2 11359.4 30747.8 11359.6 30747.5C11359.8 30747.4 11359.9 30747.3 11359.9 30747.2C11359.9 30747.2 11360 30747.1 11360 30747.1C11360 30747.1 11360 30747.1 11360 30747.1C11360 30747.1 11360 30747.1 11360 30747.1C11360 30747.1 11360 30747.1 11359.6 30746.8ZM11489.9 30400.3C11515.6 30492.2 11483 30578.7 11443.9 30642.3C11424.3 30674 11403.2 30700.1 11386.9 30718.2C11378.8 30727.2 11371.9 30734.3 11367 30739.1C11364.6 30741.5 11362.6 30743.3 11361.3 30744.5C11360.7 30745.1 11360.2 30745.6 11359.8 30745.9C11359.6 30746.1 11359.5 30746.2 11359.4 30746.3C11359.4 30746.3 11359.4 30746.3 11359.3 30746.4C11359.3 30746.4 11359.3 30746.4 11359.3 30746.4C11359.3 30746.4 11359.3 30746.4 11359.3 30746.4C11359.3 30746.4 11359.3 30746.4 11359.6 30746.8C11360 30747.1 11360 30747.1 11360 30747.1C11360 30747.1 11360 30747.1 11360 30747.1C11360 30747.1 11360 30747.1 11360 30747.1C11360 30747.1 11360.1 30747.1 11360.1 30747C11360.2 30746.9 11360.3 30746.8 11360.5 30746.7C11360.8 30746.3 11361.3 30745.9 11362 30745.3C11363.3 30744 11365.3 30742.2 11367.7 30739.8C11372.6 30735 11379.5 30727.9 11387.7 30718.8C11404 30700.7 11425.2 30674.6 11444.7 30642.8C11483.9 30579.1 11516.6 30492.3 11490.9 30400L11489.9 30400.3ZM11371.8 30158.4C11371.4 30158.7 11371.4 30158.7 11371.4 30158.7C11371.4 30158.7 11371.4 30158.7 11371.4 30158.7C11371.4 30158.7 11371.4 30158.7 11371.5 30158.7C11371.5 30158.7 11371.5 30158.8 11371.5 30158.8C11371.5 30158.8 11371.6 30158.9 11371.7 30159.1C11371.8 30159.3 11372.1 30159.6 11372.4 30160.1C11373 30161 11374 30162.4 11375.2 30164.2C11377.6 30167.8 11381 30173.1 11385.3 30179.8C11393.8 30193.3 11405.5 30212.4 11418.3 30235.2C11443.8 30280.9 11473.4 30341.3 11489.9 30400.3L11490.9 30400C11474.3 30340.9 11444.7 30280.4 11419.2 30234.7C11406.4 30211.9 11394.7 30192.7 11386.1 30179.3C11381.9 30172.6 11378.4 30167.3 11376 30163.7C11374.8 30161.9 11373.9 30160.5 11373.2 30159.5C11372.9 30159.1 11372.7 30158.7 11372.5 30158.5C11372.4 30158.4 11372.4 30158.3 11372.3 30158.2C11372.3 30158.2 11372.3 30158.2 11372.3 30158.1C11372.3 30158.1 11372.3 30158.1 11372.3 30158.1C11372.3 30158.1 11372.3 30158.1 11372.3 30158.1C11372.3 30158.1 11372.3 30158.1 11371.8 30158.4ZM11077.1 29995.1C11096.5 29999.3 11124.6 30011.5 11155.9 30027.7C11187.2 30043.8 11221.6 30063.7 11253.5 30083.2C11285.5 30102.6 11315 30121.5 11336.5 30135.6C11347.3 30142.6 11356 30148.4 11362.1 30152.5C11365.1 30154.5 11367.5 30156.1 11369.1 30157.2C11369.9 30157.7 11370.5 30158.1 11370.9 30158.4C11371.1 30158.5 11371.3 30158.6 11371.4 30158.7C11371.5 30158.8 11371.5 30158.8 11371.5 30158.8C11371.5 30158.8 11371.5 30158.8 11371.6 30158.8C11371.6 30158.8 11371.6 30158.8 11371.6 30158.8C11371.6 30158.8 11371.6 30158.8 11371.8 30158.4C11372.1 30158 11372.1 30158 11372.1 30158C11372.1 30158 11372.1 30158 11372.1 30158C11372.1 30158 11372.1 30158 11372.1 30158C11372.1 30158 11372 30157.9 11372 30157.9C11371.9 30157.8 11371.7 30157.7 11371.5 30157.6C11371.1 30157.3 11370.5 30156.9 11369.7 30156.3C11368.1 30155.3 11365.7 30153.7 11362.7 30151.6C11356.6 30147.6 11347.8 30141.8 11337.1 30134.7C11315.5 30120.7 11286 30101.8 11254 30082.3C11222.1 30062.9 11187.7 30042.9 11156.4 30026.8C11125.1 30010.7 11096.9 29998.3 11077.3 29994.2L11077.1 29995.1ZM10834.8 29999.7C10914.4 29985.8 10979.8 29974.5 11077.1 29995.1L11077.3 29994.2C10979.8 29973.4 10914.2 29984.9 10834.6 29998.7L10834.8 29999.7ZM10747.6 30013.5C10779.5 30009.4 10808 30004.4 10834.8 29999.7L10834.6 29998.7C10807.8 30003.4 10779.3 30008.4 10747.5 30012.5L10747.6 30013.5ZM10366.1 30135.1C10500.8 30060.8 10583.5 30034.6 10747.6 30013.5L10747.5 30012.5C10583.2 30033.6 10500.4 30059.9 10365.6 30134.2L10366.1 30135.1ZM10104.3 30339.4C10196 30247.5 10247.1 30200.7 10366.1 30135.1L10365.6 30134.2C10246.5 30199.9 10195.3 30246.8 10103.6 30338.7L10104.3 30339.4ZM10013.9 30427.8C10042 30400.7 10072.1 30371.8 10104.3 30339.4L10103.6 30338.7C10071.4 30371.1 10041.3 30400 10013.2 30427L10013.9 30427.8ZM9742.49 30771.6C9820.29 30613.9 9902.51 30534.8 10013.9 30427.8L10013.2 30427C9901.81 30534.1 9819.48 30613.2 9741.59 30771.2L9742.49 30771.6ZM9598.57 30924.2C9598.88 30924.6 9598.89 30924.6 9598.89 30924.6C9598.89 30924.6 9598.89 30924.6 9598.89 30924.6C9598.89 30924.5 9598.9 30924.5 9598.91 30924.5C9598.92 30924.5 9598.94 30924.5 9598.97 30924.5C9599.02 30924.4 9599.1 30924.4 9599.21 30924.3C9599.43 30924.1 9599.74 30923.9 9600.16 30923.5C9601 30922.8 9602.22 30921.8 9603.79 30920.5C9606.94 30917.9 9611.46 30914.2 9616.99 30909.4C9628.05 30900 9643.1 30886.7 9659.12 30871.5C9691.15 30841.1 9727.08 30802.9 9742.49 30771.6L9741.59 30771.2C9726.27 30802.3 9690.46 30840.4 9658.44 30870.8C9642.43 30886 9627.39 30899.2 9616.34 30908.7C9610.82 30913.4 9606.3 30917.2 9603.16 30919.8C9601.59 30921.1 9600.36 30922.1 9599.53 30922.7C9599.11 30923.1 9598.8 30923.3 9598.58 30923.5C9598.48 30923.6 9598.39 30923.7 9598.34 30923.7C9598.31 30923.7 9598.29 30923.7 9598.28 30923.8C9598.27 30923.8 9598.27 30923.8 9598.26 30923.8C9598.26 30923.8 9598.26 30923.8 9598.26 30923.8C9598.26 30923.8 9598.26 30923.8 9598.57 30924.2ZM10119.8 31516.2L9461.04 31038.5L9460.45 31039.3L10119.2 31517L10119.8 31516.2ZM9956.95 31649C9989.23 31623.7 10029.9 31590.7 10062.6 31564C10078.9 31550.6 10093.2 31538.9 10103.4 31530.5C10108.5 31526.2 10112.6 31522.9 10115.4 31520.5C10116.9 31519.4 10117.9 31518.5 10118.7 31517.9C10119 31517.6 10119.3 31517.3 10119.5 31517.2C10119.6 31517.1 10119.7 31517.1 10119.7 31517C10119.7 31517 10119.8 31517 10119.8 31517C10119.8 31517 10119.8 31517 10119.8 31517C10119.8 31517 10119.8 31517 10119.8 31517C10119.8 31517 10119.8 31517 10119.5 31516.6C10119.2 31516.2 10119.2 31516.2 10119.2 31516.2C10119.2 31516.2 10119.2 31516.2 10119.2 31516.2C10119.2 31516.2 10119.1 31516.2 10119.1 31516.2C10119.1 31516.2 10119.1 31516.2 10119.1 31516.2C10119 31516.3 10119 31516.3 10118.9 31516.4C10118.7 31516.6 10118.4 31516.8 10118 31517.1C10117.3 31517.7 10116.2 31518.6 10114.8 31519.8C10112 31522.1 10107.9 31525.5 10102.8 31529.7C10092.6 31538.1 10078.3 31549.9 10062 31563.2C10029.3 31589.9 9988.61 31622.9 9956.33 31648.2L9956.95 31649ZM9889.72 31709.4C9909.42 31690.3 9930.29 31670 9956.95 31649L9956.33 31648.2C9929.63 31669.2 9908.73 31689.6 9889.02 31708.7L9889.72 31709.4ZM9747.21 31807.2C9815.11 31782.1 9850.06 31748 9889.72 31709.4L9889.02 31708.7C9849.37 31747.3 9814.55 31781.2 9746.86 31806.3L9747.21 31807.2ZM9426.74 31829.1C9550.71 31870.1 9635.9 31848.5 9747.21 31807.2L9746.86 31806.3C9635.63 31847.5 9550.71 31869.1 9427.05 31828.2L9426.74 31829.1ZM9217.41 31683.2C9271.74 31760.1 9330.84 31797.4 9426.74 31829.1L9427.05 31828.2C9331.3 31796.5 9272.41 31759.3 9218.22 31682.6L9217.41 31683.2ZM9185.5 31442.8C9177.52 31485.8 9170.34 31524.5 9172.74 31563.1C9175.15 31601.8 9187.13 31640.3 9217.41 31683.2L9218.22 31682.6C9188.05 31639.9 9176.13 31601.5 9173.74 31563.1C9171.35 31524.6 9178.49 31486.1 9186.48 31443L9185.5 31442.8ZM9191.87 31407.5C9189.79 31419.6 9187.62 31431.4 9185.5 31442.8L9186.48 31443C9188.6 31431.5 9190.78 31419.8 9192.85 31407.7L9191.87 31407.5ZM9460.74 31038.9C9460.43 31038.5 9460.43 31038.5 9460.43 31038.5C9460.42 31038.5 9460.42 31038.5 9460.42 31038.5C9460.41 31038.5 9460.4 31038.6 9460.38 31038.6C9460.36 31038.6 9460.31 31038.6 9460.25 31038.7C9460.14 31038.8 9459.97 31038.9 9459.74 31039.1C9459.29 31039.5 9458.62 31040 9457.74 31040.8C9455.98 31042.2 9453.4 31044.4 9450.11 31047.2C9443.52 31052.9 9434.08 31061.1 9422.66 31071.6C9399.82 31092.5 9369.06 31122.3 9337.36 31157.5C9273.98 31227.8 9206.79 31320.1 9191.87 31407.5L9192.85 31407.7C9207.73 31320.5 9274.73 31228.5 9338.1 31158.1C9369.77 31123 9400.51 31093.3 9423.34 31072.3C9434.75 31061.9 9444.18 31053.6 9450.76 31048C9454.05 31045.2 9456.62 31043 9458.38 31041.5C9459.25 31040.8 9459.93 31040.2 9460.38 31039.9C9460.6 31039.7 9460.77 31039.5 9460.89 31039.4C9460.95 31039.4 9460.99 31039.4 9461.02 31039.3C9461.03 31039.3 9461.04 31039.3 9461.05 31039.3C9461.05 31039.3 9461.06 31039.3 9461.06 31039.3C9461.06 31039.3 9461.06 31039.3 9460.74 31038.9Z" fill="black"/>
<path fill-rule="evenodd" clip-rule="evenodd" d="M13708.2 27652.8L14333.2 27759.8C14333.2 27759.8 14345.6 27705.4 14349.9 27671.7C14356 27624.3 14426.7 27532.4 14426.7 27532.4C14426.7 27532.4 14474.3 27460.3 14535.2 27396.8C14608.5 27320.3 14723.4 27201.4 14723.4 27201.4C14723.4 27201.4 14784.7 27133.6 14827.8 27072.4C14865.2 27019.3 14902.8 26870.2 14902.8 26870.2C14902.8 26870.2 14972.8 26686.1 14867.4 26573.5C14799.7 26501.2 14692.5 26444.5 14692.5 26444.5C14692.5 26444.5 14482.7 26419.8 14420.6 26437C14343.2 26458.4 14300.6 26490.9 14248.8 26530.5C14231.3 26543.9 14212.8 26558 14191.5 26572.8C14081.8 26649.1 14032.4 26698.7 13963.6 26802C13902.8 26893.3 13883.6 26945.8 13852.2 27045.8C13841.2 27081 13830.4 27112.8 13820.3 27142.7C13780.5 27260.8 13751 27348 13754.1 27490C13755.3 27546.1 13708.2 27652.8 13708.2 27652.8ZM13652.3 27786.2L14301.6 27882.9C14301.6 27882.9 14261.6 27977.7 14234.2 28038.1C14222.9 28063 14215.5 28085.3 14208.6 28106.4C14194.6 28148.8 14182.2 28186 14143 28229.3C14078.7 28300.2 14025.9 28347.3 13922 28364.1C13841.6 28377.1 13785.6 28372.4 13718.1 28337.6C13643 28298.8 13626.6 28245.3 13606 28177.6C13603.2 28168.7 13600.4 28159.5 13597.4 28150C13553.8 28014 13652.3 27786.2 13652.3 27786.2Z" fill="#030303" fill-opacity="0.79"/>
<path d="M14333.2 27759.8L14333.1 27760.3L14333.6 27760.4L14333.7 27759.9L14333.2 27759.8ZM13708.2 27652.8L13707.8 27652.6L13707.5 27653.1L13708.1 27653.3L13708.2 27652.8ZM14349.9 27671.7L14349.5 27671.7L14349.9 27671.7ZM14426.7 27532.4L14427.1 27532.7L14427.1 27532.7L14427.1 27532.7L14426.7 27532.4ZM14535.2 27396.8L14534.9 27396.4L14535.2 27396.8ZM14723.4 27201.4L14723.8 27201.8L14723.8 27201.8L14723.8 27201.8L14723.4 27201.4ZM14827.8 27072.4L14827.4 27072.1L14827.8 27072.4ZM14902.8 26870.2L14902.3 26870L14902.3 26870.1L14902.3 26870.1L14902.8 26870.2ZM14867.4 26573.5L14867.7 26573.1L14867.4 26573.5ZM14692.5 26444.5L14692.8 26444.1L14692.7 26444L14692.6 26444L14692.5 26444.5ZM14420.6 26437L14420.8 26437.5L14420.6 26437ZM14248.8 26530.5L14248.5 26530.1L14248.8 26530.5ZM14191.5 26572.8L14191.2 26572.4L14191.5 26572.8ZM13963.6 26802L13964 26802.3L13963.6 26802ZM13852.2 27045.8L13852.7 27045.9L13852.2 27045.8ZM13820.3 27142.7L13819.9 27142.5L13820.3 27142.7ZM13754.1 27490L13753.6 27490L13754.1 27490ZM14301.6 27882.9L14302.1 27883.1L14302.3 27882.5L14301.7 27882.4L14301.6 27882.9ZM13652.3 27786.2L13652.4 27785.7L13652 27785.7L13651.8 27786L13652.3 27786.2ZM14234.2 28038.1L14234.7 28038.3L14234.2 28038.1ZM14208.6 28106.4L14209.1 28106.5L14208.6 28106.4ZM14143 28229.3L14142.7 28228.9L14143 28229.3ZM13922 28364.1L13922.1 28364.6L13922 28364.1ZM13718.1 28337.6L13718.3 28337.2L13718.1 28337.6ZM13606 28177.6L13605.5 28177.8L13606 28177.6ZM13597.4 28150L13596.9 28150.2L13597.4 28150ZM14333.3 27759.3L13708.3 27652.3L13708.1 27653.3L14333.1 27760.3L14333.3 27759.3ZM14349.5 27671.7C14347.3 27688.5 14343.1 27710.5 14339.5 27728.3C14337.6 27737.2 14336 27745.1 14334.7 27750.7C14334.1 27753.5 14333.6 27755.8 14333.3 27757.3C14333.1 27758.1 14332.9 27758.7 14332.9 27759.1C14332.8 27759.3 14332.8 27759.5 14332.7 27759.6C14332.7 27759.6 14332.7 27759.7 14332.7 27759.7C14332.7 27759.7 14332.7 27759.7 14332.7 27759.7C14332.7 27759.7 14332.7 27759.7 14332.7 27759.7C14332.7 27759.7 14332.7 27759.7 14332.7 27759.7C14332.7 27759.7 14332.7 27759.7 14333.2 27759.8C14333.7 27759.9 14333.7 27759.9 14333.7 27759.9C14333.7 27759.9 14333.7 27759.9 14333.7 27759.9C14333.7 27759.9 14333.7 27759.9 14333.7 27759.9C14333.7 27759.9 14333.7 27759.9 14333.7 27759.9C14333.7 27759.9 14333.7 27759.8 14333.7 27759.8C14333.7 27759.7 14333.8 27759.5 14333.8 27759.3C14333.9 27758.9 14334.1 27758.3 14334.2 27757.5C14334.6 27756 14335.1 27753.7 14335.7 27750.9C14336.9 27745.3 14338.6 27737.4 14340.5 27728.5C14344.1 27710.7 14348.3 27688.7 14350.4 27671.8L14349.5 27671.7ZM14426.7 27532.4C14426.3 27532.1 14426.3 27532.1 14426.3 27532.1C14426.3 27532.1 14426.3 27532.1 14426.3 27532.1C14426.3 27532.1 14426.3 27532.1 14426.3 27532.1C14426.3 27532.1 14426.2 27532.2 14426.2 27532.2C14426.2 27532.2 14426.1 27532.3 14426.1 27532.4C14425.9 27532.6 14425.7 27532.8 14425.5 27533.2C14425 27533.8 14424.2 27534.9 14423.2 27536.2C14421.3 27538.8 14418.5 27542.5 14415.1 27547.2C14408.4 27556.6 14399.4 27569.5 14390.2 27584C14380.9 27598.5 14371.5 27614.4 14364 27629.7C14356.6 27645 14351 27659.7 14349.5 27671.7L14350.4 27671.8C14351.9 27660 14357.5 27645.4 14364.9 27630.2C14372.4 27614.9 14381.8 27599 14391 27584.5C14400.2 27570.1 14409.2 27557.2 14415.9 27547.8C14419.3 27543.1 14422.1 27539.4 14424 27536.8C14425 27535.5 14425.8 27534.4 14426.3 27533.8C14426.5 27533.4 14426.7 27533.2 14426.9 27533C14426.9 27532.9 14427 27532.8 14427 27532.8C14427 27532.8 14427 27532.8 14427.1 27532.7C14427.1 27532.7 14427.1 27532.7 14427.1 27532.7C14427.1 27532.7 14427.1 27532.7 14427.1 27532.7C14427.1 27532.7 14427.1 27532.7 14426.7 27532.4ZM14534.9 27396.4C14504.4 27428.2 14477.2 27462.1 14457.7 27488.1C14447.9 27501.1 14440.1 27512.1 14434.7 27519.9C14431.9 27523.8 14429.8 27526.8 14428.4 27528.9C14427.7 27530 14427.2 27530.8 14426.8 27531.3C14426.6 27531.6 14426.5 27531.8 14426.4 27531.9C14426.3 27532 14426.3 27532.1 14426.3 27532.1C14426.3 27532.1 14426.3 27532.1 14426.3 27532.1C14426.3 27532.1 14426.3 27532.1 14426.3 27532.1C14426.3 27532.1 14426.3 27532.1 14426.3 27532.1C14426.3 27532.1 14426.3 27532.1 14426.7 27532.4C14427.1 27532.7 14427.1 27532.7 14427.1 27532.7C14427.1 27532.7 14427.1 27532.7 14427.1 27532.7C14427.1 27532.7 14427.1 27532.7 14427.1 27532.7C14427.1 27532.7 14427.1 27532.7 14427.1 27532.6C14427.1 27532.6 14427.2 27532.6 14427.2 27532.5C14427.3 27532.3 14427.5 27532.1 14427.6 27531.9C14428 27531.3 14428.5 27530.5 14429.3 27529.5C14430.7 27527.4 14432.8 27524.3 14435.5 27520.4C14440.9 27512.7 14448.7 27501.7 14458.5 27488.7C14478 27462.8 14505.1 27428.9 14535.6 27397.1L14534.9 27396.4ZM14723.4 27201.4C14723 27201.1 14723 27201.1 14723 27201.1C14723 27201.1 14723 27201.1 14723 27201.1C14723 27201.1 14723 27201.1 14723 27201.1C14723 27201.1 14723 27201.1 14723 27201.2C14722.9 27201.2 14722.8 27201.3 14722.7 27201.4C14722.5 27201.7 14722.2 27202 14721.7 27202.4C14720.9 27203.3 14719.6 27204.6 14718 27206.3C14714.7 27209.7 14709.9 27214.7 14703.9 27220.9C14692 27233.2 14675.4 27250.5 14656.4 27270.1C14618.6 27309.4 14571.5 27358.2 14534.9 27396.4L14535.6 27397.1C14572.2 27358.9 14619.3 27310.1 14657.2 27270.8C14676.1 27251.1 14692.8 27233.9 14704.7 27221.6C14710.6 27215.4 14715.4 27210.4 14718.7 27207C14720.3 27205.3 14721.6 27204 14722.5 27203.1C14722.9 27202.7 14723.2 27202.3 14723.4 27202.1C14723.5 27202 14723.6 27201.9 14723.7 27201.9C14723.7 27201.8 14723.7 27201.8 14723.7 27201.8C14723.8 27201.8 14723.8 27201.8 14723.8 27201.8C14723.8 27201.8 14723.8 27201.8 14723.8 27201.8C14723.8 27201.8 14723.8 27201.8 14723.4 27201.4ZM14827.4 27072.1C14805.8 27102.7 14779.8 27134.9 14759 27159.5C14748.7 27171.8 14739.7 27182.2 14733.3 27189.5C14730.1 27193.2 14727.5 27196.1 14725.8 27198.1C14724.9 27199 14724.2 27199.8 14723.7 27200.3C14723.5 27200.6 14723.3 27200.8 14723.2 27200.9C14723.2 27201 14723.1 27201 14723.1 27201C14723.1 27201.1 14723.1 27201.1 14723 27201.1C14723 27201.1 14723 27201.1 14723 27201.1C14723 27201.1 14723 27201.1 14723 27201.1C14723 27201.1 14723 27201.1 14723.4 27201.4C14723.8 27201.8 14723.8 27201.8 14723.8 27201.8C14723.8 27201.8 14723.8 27201.8 14723.8 27201.8C14723.8 27201.8 14723.8 27201.8 14723.8 27201.8C14723.8 27201.7 14723.8 27201.7 14723.8 27201.7C14723.9 27201.7 14723.9 27201.6 14724 27201.6C14724.1 27201.4 14724.2 27201.2 14724.5 27201C14724.9 27200.5 14725.6 27199.7 14726.5 27198.7C14728.3 27196.8 14730.8 27193.9 14734 27190.2C14740.4 27182.9 14749.5 27172.5 14759.8 27160.2C14780.5 27135.5 14806.6 27103.3 14828.2 27072.7L14827.4 27072.1ZM14902.8 26870.2C14902.3 26870.1 14902.3 26870.1 14902.3 26870.1C14902.3 26870.1 14902.3 26870.1 14902.3 26870.1C14902.3 26870.1 14902.3 26870.1 14902.3 26870.1C14902.3 26870.1 14902.3 26870.2 14902.3 26870.2C14902.3 26870.3 14902.2 26870.4 14902.2 26870.5C14902.1 26870.8 14902 26871.2 14901.9 26871.8C14901.6 26872.9 14901.2 26874.5 14900.6 26876.6C14899.5 26880.8 14897.9 26886.8 14895.9 26894.2C14891.7 26909 14885.9 26929.3 14878.8 26951.2C14864.8 26995.2 14846 27045.6 14827.4 27072.1L14828.2 27072.7C14846.9 27046.1 14865.7 26995.4 14879.8 26951.6C14886.8 26929.6 14892.7 26909.3 14896.8 26894.5C14898.9 26887.1 14900.5 26881 14901.6 26876.9C14902.1 26874.8 14902.6 26873.1 14902.9 26872C14903 26871.5 14903.1 26871.1 14903.2 26870.8C14903.2 26870.6 14903.2 26870.5 14903.3 26870.4C14903.3 26870.4 14903.3 26870.4 14903.3 26870.4C14903.3 26870.4 14903.3 26870.3 14903.3 26870.3C14903.3 26870.3 14903.3 26870.3 14903.3 26870.3C14903.3 26870.3 14903.3 26870.3 14902.8 26870.2ZM14867 26573.8C14919.6 26630 14928.4 26704 14924.1 26764C14922 26794.1 14916.5 26820.6 14911.6 26839.6C14909.1 26849.1 14906.8 26856.7 14905.1 26861.9C14904.3 26864.6 14903.6 26866.6 14903.1 26868C14902.8 26868.6 14902.7 26869.2 14902.5 26869.5C14902.5 26869.7 14902.4 26869.8 14902.4 26869.9C14902.4 26870 14902.4 26870 14902.3 26870C14902.3 26870 14902.3 26870 14902.3 26870C14902.3 26870 14902.3 26870 14902.3 26870C14902.3 26870 14902.3 26870 14902.8 26870.2C14903.3 26870.4 14903.3 26870.4 14903.3 26870.4C14903.3 26870.4 14903.3 26870.4 14903.3 26870.4C14903.3 26870.4 14903.3 26870.4 14903.3 26870.4C14903.3 26870.3 14903.3 26870.3 14903.3 26870.3C14903.4 26870.2 14903.4 26870 14903.5 26869.9C14903.6 26869.5 14903.8 26869 14904 26868.3C14904.5 26866.9 14905.2 26864.9 14906.1 26862.2C14907.8 26857 14910.1 26849.3 14912.6 26839.8C14917.5 26820.8 14922.9 26794.2 14925.1 26764.1C14929.4 26703.9 14920.6 26629.6 14867.7 26573.1L14867 26573.8ZM14692.5 26444.5C14692.3 26445 14692.3 26445 14692.3 26445C14692.3 26445 14692.3 26445 14692.3 26445C14692.3 26445 14692.3 26445 14692.3 26445C14692.3 26445 14692.3 26445 14692.4 26445C14692.4 26445 14692.5 26445.1 14692.6 26445.1C14692.8 26445.2 14693.1 26445.4 14693.5 26445.6C14694.3 26446 14695.5 26446.7 14697 26447.5C14700.1 26449.2 14704.5 26451.7 14710.1 26454.9C14721.2 26461.4 14736.7 26470.7 14754.3 26482.3C14789.6 26505.5 14833.2 26537.7 14867 26573.8L14867.7 26573.1C14833.9 26536.9 14790.1 26504.7 14754.9 26481.5C14737.2 26469.9 14721.7 26460.5 14710.6 26454.1C14705 26450.8 14700.6 26448.3 14697.5 26446.7C14696 26445.8 14694.8 26445.2 14694 26444.7C14693.6 26444.5 14693.3 26444.3 14693.1 26444.2C14693 26444.2 14692.9 26444.1 14692.8 26444.1C14692.8 26444.1 14692.8 26444.1 14692.8 26444.1C14692.8 26444.1 14692.8 26444.1 14692.8 26444.1C14692.8 26444.1 14692.8 26444.1 14692.8 26444.1C14692.8 26444.1 14692.8 26444.1 14692.5 26444.5ZM14420.8 26437.5C14436.2 26433.2 14460.9 26431.5 14489.3 26431.4C14517.7 26431.3 14549.7 26432.8 14579.8 26434.8C14609.9 26436.8 14638.1 26439.4 14658.7 26441.4C14669 26442.4 14677.5 26443.3 14683.3 26444C14686.3 26444.3 14688.5 26444.6 14690.1 26444.7C14690.9 26444.8 14691.5 26444.9 14691.9 26444.9C14692.1 26445 14692.2 26445 14692.3 26445C14692.4 26445 14692.4 26445 14692.4 26445C14692.4 26445 14692.5 26445 14692.5 26445C14692.5 26445 14692.5 26445 14692.5 26445C14692.5 26445 14692.5 26445 14692.5 26444.5C14692.6 26444 14692.6 26444 14692.6 26444C14692.6 26444 14692.6 26444 14692.6 26444C14692.6 26444 14692.6 26444 14692.5 26444C14692.5 26444 14692.5 26444 14692.4 26444C14692.3 26444 14692.2 26444 14692 26443.9C14691.6 26443.9 14691 26443.8 14690.2 26443.7C14688.7 26443.6 14686.4 26443.3 14683.4 26443C14677.6 26442.3 14669.1 26441.4 14658.8 26440.4C14638.2 26438.4 14610 26435.8 14579.9 26433.8C14549.8 26431.8 14517.7 26430.3 14489.3 26430.4C14460.9 26430.5 14436.1 26432.2 14420.5 26436.5L14420.8 26437.5ZM14249.1 26530.9C14300.9 26491.4 14343.4 26458.9 14420.8 26437.5L14420.5 26436.5C14343 26458 14300.3 26490.5 14248.5 26530.1L14249.1 26530.9ZM14191.8 26573.2C14213.1 26558.4 14231.6 26544.2 14249.1 26530.9L14248.5 26530.1C14231 26543.5 14212.5 26557.6 14191.2 26572.4L14191.8 26573.2ZM13964 26802.3C14032.8 26699 14082.2 26649.4 14191.8 26573.2L14191.2 26572.4C14081.5 26648.7 14032 26698.3 13963.2 26801.7L13964 26802.3ZM13852.7 27045.9C13884.1 26946 13903.3 26893.5 13964 26802.3L13963.2 26801.7C13902.4 26893.1 13883.2 26945.7 13851.7 27045.6L13852.7 27045.9ZM13820.8 27142.9C13830.9 27113 13841.6 27081.1 13852.7 27045.9L13851.7 27045.6C13840.7 27080.8 13829.9 27112.7 13819.9 27142.5L13820.8 27142.9ZM13754.6 27490C13751.5 27348.1 13781 27260.9 13820.8 27142.9L13819.9 27142.5C13780 27260.6 13750.5 27347.9 13753.6 27490L13754.6 27490ZM13708.2 27652.8C13708.7 27653 13708.7 27653 13708.7 27653C13708.7 27653 13708.7 27653 13708.7 27653C13708.7 27653 13708.7 27652.9 13708.7 27652.9C13708.7 27652.9 13708.7 27652.9 13708.7 27652.9C13708.7 27652.8 13708.8 27652.8 13708.8 27652.7C13708.9 27652.4 13709 27652.1 13709.2 27651.7C13709.6 27651 13710.1 27649.8 13710.7 27648.3C13712 27645.2 13713.8 27640.8 13716 27635.4C13720.4 27624.5 13726.3 27609.4 13732.1 27592.6C13743.7 27558.9 13755.2 27518.1 13754.6 27490L13753.6 27490C13754.2 27518 13742.7 27558.6 13731.1 27592.3C13725.3 27609.1 13719.5 27624.2 13715.1 27635C13712.9 27640.5 13711.1 27644.8 13709.8 27647.9C13709.1 27649.4 13708.6 27650.6 13708.3 27651.4C13708.1 27651.7 13708 27652.1 13707.9 27652.3C13707.9 27652.4 13707.8 27652.4 13707.8 27652.5C13707.8 27652.5 13707.8 27652.5 13707.8 27652.5C13707.8 27652.5 13707.8 27652.6 13707.8 27652.6C13707.8 27652.6 13707.8 27652.6 13707.8 27652.6C13707.8 27652.6 13707.8 27652.6 13708.2 27652.8ZM14301.7 27882.4L13652.4 27785.7L13652.2 27786.7L14301.6 27883.4L14301.7 27882.4ZM14234.7 28038.3C14248.4 28008.1 14265.2 27969.3 14278.6 27938.1C14285.4 27922.4 14291.2 27908.7 14295.4 27898.9C14297.5 27893.9 14299.2 27890 14300.3 27887.3C14300.9 27885.9 14301.3 27884.9 14301.6 27884.2C14301.8 27883.8 14301.9 27883.6 14302 27883.4C14302 27883.3 14302 27883.2 14302.1 27883.2C14302.1 27883.1 14302.1 27883.1 14302.1 27883.1C14302.1 27883.1 14302.1 27883.1 14302.1 27883.1C14302.1 27883.1 14302.1 27883.1 14302.1 27883.1C14302.1 27883.1 14302.1 27883.1 14301.6 27882.9C14301.2 27882.7 14301.2 27882.7 14301.2 27882.7C14301.2 27882.7 14301.2 27882.7 14301.2 27882.7C14301.2 27882.7 14301.2 27882.7 14301.2 27882.7C14301.2 27882.7 14301.1 27882.8 14301.1 27882.8C14301.1 27882.8 14301.1 27882.9 14301.1 27883C14301 27883.2 14300.9 27883.4 14300.7 27883.8C14300.4 27884.5 14300 27885.5 14299.4 27886.9C14298.2 27889.6 14296.6 27893.6 14294.5 27898.5C14290.3 27908.3 14284.4 27922 14277.7 27937.7C14264.3 27968.9 14247.4 28007.7 14233.8 28037.9L14234.7 28038.3ZM14209.1 28106.5C14216 28085.5 14223.4 28063.2 14234.7 28038.3L14233.8 28037.9C14222.5 28062.8 14215.1 28085.2 14208.1 28106.2L14209.1 28106.5ZM14143.4 28229.6C14182.7 28186.3 14195 28148.9 14209.1 28106.5L14208.1 28106.2C14194.1 28148.6 14181.8 28185.8 14142.7 28228.9L14143.4 28229.6ZM13922.1 28364.6C14026.2 28347.8 14079.1 28300.6 14143.4 28229.6L14142.7 28228.9C14078.4 28299.8 14025.7 28346.9 13922 28363.6L13922.1 28364.6ZM13717.9 28338.1C13785.4 28372.9 13841.6 28377.6 13922.1 28364.6L13922 28363.6C13841.6 28376.6 13785.7 28371.9 13718.3 28337.2L13717.9 28338.1ZM13605.5 28177.8C13615.8 28211.6 13625.1 28242 13641.2 28268.7C13657.3 28295.5 13680.2 28318.6 13717.9 28338.1L13718.3 28337.2C13680.9 28317.8 13658.1 28294.8 13642 28268.2C13626 28241.6 13616.8 28211.3 13606.5 28177.5L13605.5 28177.8ZM13596.9 28150.2C13600 28159.6 13602.8 28168.8 13605.5 28177.8L13606.5 28177.5C13603.7 28168.5 13600.9 28159.3 13597.9 28149.9L13596.9 28150.2ZM13652.3 27786.2C13651.8 27786 13651.8 27786 13651.8 27786C13651.8 27786 13651.8 27786 13651.8 27786C13651.8 27786 13651.8 27786 13651.8 27786.1C13651.8 27786.1 13651.8 27786.1 13651.8 27786.2C13651.7 27786.3 13651.6 27786.5 13651.5 27786.7C13651.4 27787.1 13651.1 27787.8 13650.7 27788.6C13650 27790.3 13649 27792.8 13647.7 27796.1C13645.1 27802.6 13641.4 27812 13637.1 27823.7C13628.5 27847.2 13617.6 27880 13608 27917C13588.8 27990.9 13575.1 28082 13596.9 28150.2L13597.9 28149.9C13576.1 28082 13589.8 27991.2 13609 27917.2C13618.5 27880.3 13629.5 27847.6 13638 27824.1C13642.3 27812.4 13646 27802.9 13648.6 27796.4C13649.9 27793.2 13650.9 27790.7 13651.7 27789C13652 27788.1 13652.3 27787.5 13652.5 27787.1C13652.6 27786.8 13652.6 27786.7 13652.7 27786.6C13652.7 27786.5 13652.7 27786.5 13652.7 27786.4C13652.7 27786.4 13652.7 27786.4 13652.7 27786.4C13652.7 27786.4 13652.7 27786.4 13652.7 27786.4C13652.7 27786.4 13652.7 27786.4 13652.3 27786.2Z" fill="black"/>
<path fill-rule="evenodd" clip-rule="evenodd" d="M12933.4 22561.6L13147.4 22273C13147.4 22273 13114.2 22252.9 13092.9 22242.2C13062.9 22227.1 13018.2 22168.1 13018.2 22168.1C13018.2 22168.1 12981.4 22125.8 12953.2 22078.9C12919.4 22022.5 12867 21934.3 12867 21934.3C12867 21934.3 12836 21886.1 12805.4 21848.8C12778.8 21816.5 12688.7 21759.7 12688.7 21759.7C12688.7 21759.7 12582.8 21677.7 12484 21702.4C12420.7 21718.2 12358.6 21758 12358.6 21758C12358.6 21758 12294.1 21857.8 12291.3 21893.5C12287.8 21938.1 12299.6 21967.8 12313.9 22004C12318.7 22016.3 12323.9 22029.2 12328.8 22043.7C12354.2 22118.5 12375.7 22156 12428.4 22217C12474.9 22270.8 12505.3 22293.8 12564.3 22335C12585.1 22349.5 12603.8 22363 12621.2 22375.7C12690.3 22425.8 12741.3 22462.8 12836.1 22497.2C12873.5 22510.8 12933.4 22561.6 12933.4 22561.6ZM13008.9 22623.7L13221.7 22320.1C13221.7 22320.1 13275.3 22364.4 13309 22393.5C13322.9 22405.5 13336 22414.9 13348.4 22423.8C13373.3 22441.6 13395.1 22457.3 13414.8 22488C13447 22538.5 13466.2 22577.1 13453.5 22633.9C13443.6 22677.8 13427.7 22704.9 13389.2 22730.2C13346.3 22758.3 13307.1 22753 13257.6 22746.3C13251 22745.4 13244.3 22744.5 13237.3 22743.6C13137.2 22731.2 13008.9 22623.7 13008.9 22623.7Z" fill="#030303" fill-opacity="0.69"/>
<path d="M13147.4 22273L13147.8 22273.3L13148.1 22272.8L13147.7 22272.5L13147.4 22273ZM12933.4 22561.6L12933 22562L12933.5 22562.4L12933.8 22561.9L12933.4 22561.6ZM13092.9 22242.2L13092.7 22242.6L13092.9 22242.2ZM13018.2 22168.1L13018.6 22167.8L13018.6 22167.8L13018.6 22167.8L13018.2 22168.1ZM12953.2 22078.9L12953.7 22078.6L12953.2 22078.9ZM12867 21934.3L12867.4 21934L12867.4 21934L12867.4 21934L12867 21934.3ZM12805.4 21848.8L12805 21849.1L12805.4 21848.8ZM12688.7 21759.7L12688.4 21760.1L12688.4 21760.1L12688.4 21760.1L12688.7 21759.7ZM12484 21702.4L12484.1 21702.8L12484 21702.4ZM12358.6 21758L12358.3 21757.6L12358.2 21757.7L12358.2 21757.8L12358.6 21758ZM12291.3 21893.5L12291.8 21893.5L12291.3 21893.5ZM12313.9 22004L12314.4 22003.9L12313.9 22004ZM12328.8 22043.7L12329.3 22043.6L12328.8 22043.7ZM12428.4 22217L12428.8 22216.7L12428.4 22217ZM12564.3 22335L12564.6 22334.6L12564.3 22335ZM12621.2 22375.7L12620.9 22376.1L12621.2 22375.7ZM12836.1 22497.2L12836.2 22496.7L12836.1 22497.2ZM13221.7 22320.1L13222 22319.7L13221.6 22319.4L13221.3 22319.8L13221.7 22320.1ZM13008.9 22623.7L13008.5 22623.4L13008.3 22623.8L13008.6 22624.1L13008.9 22623.7ZM13309 22393.5L13309.4 22393.1L13309 22393.5ZM13348.4 22423.8L13348.7 22423.4L13348.4 22423.8ZM13414.8 22488L13414.4 22488.3L13414.8 22488ZM13453.5 22633.9L13454 22634L13453.5 22633.9ZM13389.2 22730.2L13389.5 22730.6L13389.2 22730.2ZM13257.6 22746.3L13257.6 22745.8L13257.6 22746.3ZM13237.3 22743.6L13237.4 22743.2L13237.3 22743.6ZM13147 22272.7L12933 22561.3L12933.8 22561.9L13147.8 22273.3L13147 22272.7ZM13092.7 22242.6C13103.3 22248 13117 22255.7 13127.9 22262C13133.4 22265.2 13138.2 22268 13141.6 22270.1C13143.4 22271.1 13144.7 22271.9 13145.7 22272.5C13146.2 22272.8 13146.5 22273 13146.8 22273.2C13146.9 22273.2 13147 22273.3 13147.1 22273.3C13147.1 22273.3 13147.1 22273.4 13147.1 22273.4C13147.1 22273.4 13147.2 22273.4 13147.2 22273.4C13147.2 22273.4 13147.2 22273.4 13147.2 22273.4C13147.2 22273.4 13147.2 22273.4 13147.2 22273.4C13147.2 22273.4 13147.2 22273.4 13147.4 22273C13147.7 22272.5 13147.7 22272.5 13147.7 22272.5C13147.7 22272.5 13147.7 22272.5 13147.7 22272.5C13147.7 22272.5 13147.7 22272.5 13147.7 22272.5C13147.7 22272.5 13147.7 22272.5 13147.7 22272.5C13147.6 22272.5 13147.6 22272.5 13147.6 22272.5C13147.5 22272.4 13147.4 22272.4 13147.3 22272.3C13147.1 22272.2 13146.7 22271.9 13146.2 22271.6C13145.3 22271.1 13143.9 22270.2 13142.2 22269.2C13138.7 22267.2 13133.9 22264.3 13128.4 22261.1C13117.5 22254.8 13103.8 22247.1 13093.1 22241.7L13092.7 22242.6ZM13018.2 22168.1C13017.8 22168.4 13017.8 22168.4 13017.8 22168.4C13017.8 22168.4 13017.8 22168.4 13017.8 22168.4C13017.8 22168.4 13017.8 22168.4 13017.8 22168.4C13017.8 22168.4 13017.8 22168.4 13017.8 22168.4C13017.9 22168.5 13017.9 22168.5 13017.9 22168.6C13018 22168.7 13018.2 22168.8 13018.3 22169.1C13018.7 22169.5 13019.2 22170.1 13019.8 22171C13021.1 22172.6 13022.9 22175 13025.3 22177.9C13029.9 22183.6 13036.5 22191.5 13043.9 22199.8C13051.4 22208.1 13059.8 22216.9 13068.2 22224.6C13076.6 22232.3 13085.1 22238.8 13092.7 22242.6L13093.1 22241.7C13085.7 22238 13077.3 22231.5 13068.9 22223.9C13060.5 22216.2 13052.1 22207.4 13044.7 22199.1C13037.2 22190.8 13030.7 22183 13026 22177.2C13023.7 22174.3 13021.9 22172 13020.6 22170.3C13019.9 22169.5 13019.5 22168.9 13019.1 22168.5C13019 22168.2 13018.8 22168.1 13018.7 22168C13018.7 22167.9 13018.7 22167.9 13018.6 22167.8C13018.6 22167.8 13018.6 22167.8 13018.6 22167.8C13018.6 22167.8 13018.6 22167.8 13018.6 22167.8C13018.6 22167.8 13018.6 22167.8 13018.6 22167.8C13018.6 22167.8 13018.6 22167.8 13018.2 22168.1ZM12952.8 22079.1C12966.9 22102.6 12983.1 22124.9 12995.9 22141.4C13002.2 22149.6 13007.7 22156.4 13011.6 22161.1C13013.6 22163.4 13015.1 22165.3 13016.2 22166.5C13016.7 22167.1 13017.1 22167.6 13017.4 22167.9C13017.6 22168.1 13017.7 22168.2 13017.7 22168.3C13017.8 22168.3 13017.8 22168.4 13017.8 22168.4C13017.8 22168.4 13017.8 22168.4 13017.8 22168.4C13017.8 22168.4 13017.8 22168.4 13017.8 22168.4C13017.8 22168.4 13017.8 22168.4 13017.8 22168.4C13017.8 22168.4 13017.8 22168.4 13018.2 22168.1C13018.6 22167.8 13018.6 22167.8 13018.6 22167.8C13018.6 22167.8 13018.6 22167.8 13018.6 22167.8C13018.6 22167.8 13018.6 22167.8 13018.6 22167.8C13018.6 22167.7 13018.6 22167.7 13018.6 22167.7C13018.5 22167.7 13018.5 22167.7 13018.5 22167.6C13018.4 22167.6 13018.3 22167.4 13018.2 22167.3C13017.9 22167 13017.5 22166.5 13017 22165.9C13015.9 22164.6 13014.3 22162.8 13012.4 22160.4C13008.5 22155.7 13003 22149 12996.7 22140.8C12983.9 22124.3 12967.7 22102 12953.7 22078.6L12952.8 22079.1ZM12867 21934.3C12866.5 21934.5 12866.5 21934.5 12866.5 21934.5C12866.5 21934.5 12866.5 21934.5 12866.5 21934.5C12866.5 21934.5 12866.5 21934.5 12866.5 21934.5C12866.5 21934.5 12866.6 21934.6 12866.6 21934.6C12866.6 21934.6 12866.6 21934.7 12866.7 21934.8C12866.8 21934.9 12866.9 21935.2 12867.1 21935.5C12867.5 21936.2 12868.1 21937.2 12868.8 21938.4C12870.3 21940.9 12872.5 21944.6 12875.3 21949.2C12880.7 21958.3 12888.3 21971.1 12897 21985.7C12914.3 22014.8 12935.9 22050.9 12952.8 22079.1L12953.7 22078.6C12936.7 22050.4 12915.2 22014.3 12897.8 21985.2C12889.2 21970.6 12881.6 21957.8 12876.1 21948.7C12873.4 21944.1 12871.2 21940.4 12869.7 21937.9C12869 21936.6 12868.4 21935.7 12868 21935C12867.8 21934.7 12867.6 21934.4 12867.5 21934.3C12867.5 21934.2 12867.5 21934.1 12867.4 21934.1C12867.4 21934 12867.4 21934 12867.4 21934C12867.4 21934 12867.4 21934 12867.4 21934C12867.4 21934 12867.4 21934 12867.4 21934C12867.4 21934 12867.4 21934 12867 21934.3ZM12805 21849.1C12820.3 21867.8 12835.7 21889.1 12847.3 21905.8C12853 21914.2 12857.9 21921.3 12861.2 21926.4C12862.9 21929 12864.2 21931 12865.2 21932.4C12865.6 21933.1 12866 21933.6 12866.2 21934C12866.3 21934.2 12866.4 21934.3 12866.4 21934.4C12866.5 21934.4 12866.5 21934.5 12866.5 21934.5C12866.5 21934.5 12866.5 21934.5 12866.5 21934.5C12866.5 21934.5 12866.5 21934.5 12866.5 21934.5C12866.5 21934.5 12866.5 21934.5 12866.5 21934.5C12866.5 21934.5 12866.5 21934.5 12867 21934.3C12867.4 21934 12867.4 21934 12867.4 21934C12867.4 21934 12867.4 21934 12867.4 21934C12867.4 21934 12867.4 21934 12867.4 21934C12867.4 21934 12867.4 21934 12867.4 21934C12867.3 21933.9 12867.3 21933.9 12867.3 21933.8C12867.2 21933.8 12867.1 21933.6 12867 21933.4C12866.8 21933.1 12866.4 21932.5 12866 21931.8C12865.1 21930.5 12863.8 21928.4 12862.1 21925.9C12858.7 21920.8 12853.9 21913.6 12848.1 21905.2C12836.5 21888.5 12821.1 21867.1 12805.8 21848.5L12805 21849.1ZM12688.7 21759.7C12688.4 21760.1 12688.4 21760.1 12688.4 21760.1C12688.4 21760.1 12688.4 21760.1 12688.4 21760.1C12688.4 21760.1 12688.4 21760.1 12688.4 21760.1C12688.4 21760.1 12688.5 21760.1 12688.5 21760.1C12688.5 21760.2 12688.6 21760.2 12688.7 21760.3C12688.8 21760.4 12689.1 21760.5 12689.4 21760.7C12690.1 21761.2 12691.1 21761.8 12692.3 21762.6C12694.8 21764.2 12698.5 21766.6 12702.9 21769.5C12711.8 21775.3 12723.9 21783.4 12736.8 21792.5C12762.6 21810.8 12791.8 21833 12805 21849.1L12805.8 21848.5C12792.4 21832.3 12763.2 21809.9 12737.4 21791.7C12724.4 21782.6 12712.3 21774.5 12703.5 21768.6C12699 21765.7 12695.4 21763.4 12692.9 21761.8C12691.6 21760.9 12690.6 21760.3 12690 21759.9C12689.6 21759.7 12689.4 21759.5 12689.2 21759.4C12689.1 21759.4 12689.1 21759.3 12689 21759.3C12689 21759.3 12689 21759.3 12689 21759.3C12689 21759.3 12689 21759.2 12689 21759.2C12688.9 21759.2 12688.9 21759.2 12688.9 21759.2C12688.9 21759.2 12688.9 21759.2 12688.7 21759.7ZM12484.1 21702.8C12533.4 21690.5 12584.4 21704.8 12623.2 21722.2C12642.6 21730.9 12658.9 21740.4 12670.3 21747.7C12676 21751.3 12680.6 21754.4 12683.6 21756.6C12685.2 21757.7 12686.4 21758.6 12687.2 21759.2C12687.6 21759.4 12687.9 21759.7 12688.1 21759.8C12688.2 21759.9 12688.2 21760 12688.3 21760C12688.3 21760 12688.3 21760 12688.4 21760C12688.4 21760.1 12688.4 21760.1 12688.4 21760.1C12688.4 21760.1 12688.4 21760.1 12688.4 21760.1C12688.4 21760.1 12688.4 21760.1 12688.7 21759.7C12689 21759.3 12689 21759.3 12689 21759.3C12689 21759.3 12689 21759.3 12689 21759.3C12689 21759.3 12689 21759.3 12689 21759.3C12689 21759.2 12688.9 21759.2 12688.9 21759.2C12688.9 21759.2 12688.8 21759.1 12688.7 21759C12688.5 21758.9 12688.2 21758.6 12687.8 21758.4C12687 21757.8 12685.8 21756.9 12684.2 21755.8C12681.1 21753.6 12676.6 21750.5 12670.9 21746.8C12659.4 21739.5 12643 21730 12623.6 21721.3C12584.7 21703.9 12533.4 21689.5 12483.9 21701.9L12484.1 21702.8ZM12358.6 21758C12358.8 21758.4 12358.8 21758.4 12358.8 21758.4C12358.8 21758.4 12358.8 21758.4 12358.8 21758.4C12358.8 21758.4 12358.9 21758.4 12358.9 21758.4C12358.9 21758.4 12358.9 21758.4 12358.9 21758.4C12358.9 21758.4 12359 21758.4 12359 21758.3C12359.1 21758.3 12359.3 21758.1 12359.6 21758C12360 21757.7 12360.7 21757.3 12361.6 21756.7C12363.4 21755.6 12366.1 21754 12369.5 21752C12376.3 21748 12386.1 21742.5 12397.8 21736.6C12421.2 21724.7 12452.5 21710.8 12484.1 21702.8L12483.9 21701.9C12452.2 21709.8 12420.8 21723.7 12397.3 21735.7C12385.6 21741.7 12375.8 21747.1 12369 21751.1C12365.6 21753.1 12362.9 21754.7 12361.1 21755.9C12360.2 21756.4 12359.5 21756.9 12359 21757.2C12358.8 21757.3 12358.6 21757.4 12358.5 21757.5C12358.4 21757.5 12358.4 21757.6 12358.4 21757.6C12358.3 21757.6 12358.3 21757.6 12358.3 21757.6C12358.3 21757.6 12358.3 21757.6 12358.3 21757.6C12358.3 21757.6 12358.3 21757.6 12358.3 21757.6C12358.3 21757.6 12358.3 21757.6 12358.6 21758ZM12291.8 21893.5C12292.5 21884.7 12297 21871.9 12303.5 21857.5C12309.9 21843.1 12318.2 21827.3 12326.4 21812.6C12334.7 21797.9 12342.8 21784.3 12348.9 21774.4C12351.9 21769.5 12354.5 21765.4 12356.2 21762.7C12357.1 21761.3 12357.8 21760.2 12358.3 21759.4C12358.5 21759.1 12358.7 21758.8 12358.8 21758.6C12358.9 21758.5 12358.9 21758.4 12358.9 21758.4C12359 21758.3 12359 21758.3 12359 21758.3C12359 21758.3 12359 21758.3 12359 21758.3C12359 21758.3 12359 21758.3 12359 21758.3C12359 21758.3 12359 21758.3 12358.6 21758C12358.2 21757.8 12358.2 21757.8 12358.2 21757.8C12358.2 21757.8 12358.2 21757.8 12358.2 21757.8C12358.1 21757.8 12358.1 21757.8 12358.1 21757.8C12358.1 21757.8 12358.1 21757.8 12358.1 21757.8C12358.1 21757.9 12358 21758 12358 21758C12357.8 21758.2 12357.7 21758.5 12357.4 21758.9C12357 21759.6 12356.3 21760.7 12355.4 21762.1C12353.6 21764.9 12351.1 21769 12348 21773.9C12341.9 21783.8 12333.8 21797.4 12325.6 21812.1C12317.3 21826.8 12309 21842.7 12302.6 21857.1C12296.1 21871.4 12291.5 21884.4 12290.8 21893.5L12291.8 21893.5ZM12314.4 22003.9C12300 21967.7 12288.3 21938 12291.8 21893.5L12290.8 21893.5C12287.3 21938.2 12299.1 21968 12313.4 22004.2L12314.4 22003.9ZM12329.3 22043.6C12324.3 22029 12319.2 22016.1 12314.4 22003.9L12313.4 22004.2C12318.3 22016.5 12323.4 22029.4 12328.3 22043.9L12329.3 22043.6ZM12428.8 22216.7C12376.1 22155.7 12354.6 22118.2 12329.3 22043.6L12328.3 22043.9C12353.7 22118.7 12375.3 22156.3 12428 22217.3L12428.8 22216.7ZM12564.6 22334.6C12505.6 22293.4 12475.3 22270.5 12428.8 22216.7L12428 22217.3C12474.6 22271.2 12505 22294.2 12564.1 22335.4L12564.6 22334.6ZM12621.5 22375.3C12604 22362.6 12585.4 22349.1 12564.6 22334.6L12564.1 22335.4C12584.8 22349.9 12603.5 22363.4 12620.9 22376.1L12621.5 22375.3ZM12836.2 22496.7C12741.6 22462.3 12690.6 22425.4 12621.5 22375.3L12620.9 22376.1C12690 22426.2 12741.1 22463.2 12835.9 22497.7L12836.2 22496.7ZM12933.4 22561.6C12933.7 22561.2 12933.7 22561.2 12933.7 22561.2C12933.7 22561.2 12933.7 22561.2 12933.7 22561.2C12933.7 22561.2 12933.7 22561.2 12933.7 22561.2C12933.7 22561.2 12933.7 22561.2 12933.6 22561.2C12933.6 22561.2 12933.6 22561.1 12933.5 22561.1C12933.4 22561 12933.2 22560.9 12933 22560.7C12932.6 22560.3 12931.9 22559.7 12931 22559C12929.3 22557.6 12926.8 22555.6 12923.7 22553.1C12917.5 22548.1 12908.9 22541.3 12899 22534.1C12879.4 22519.7 12855 22503.6 12836.2 22496.7L12835.9 22497.7C12854.5 22504.5 12878.8 22520.5 12898.5 22534.9C12908.3 22542.1 12916.9 22548.9 12923.1 22553.9C12926.2 22556.3 12928.7 22558.4 12930.4 22559.8C12931.3 22560.5 12931.9 22561.1 12932.4 22561.4C12932.6 22561.6 12932.8 22561.8 12932.9 22561.9C12932.9 22561.9 12933 22561.9 12933 22562C12933 22562 12933 22562 12933 22562C12933 22562 12933 22562 12933 22562C12933 22562 12933 22562 12933 22562C12933 22562 12933 22562 12933.4 22561.6ZM13221.3 22319.8L13008.5 22623.4L13009.3 22624L13222.1 22320.4L13221.3 22319.8ZM13309.4 22393.1C13292.5 22378.5 13270.7 22360.2 13253.1 22345.5C13244.2 22338.1 13236.5 22331.7 13230.9 22327.1C13228.2 22324.8 13225.9 22322.9 13224.4 22321.7C13223.6 22321 13223 22320.6 13222.6 22320.2C13222.4 22320.1 13222.3 22319.9 13222.2 22319.8C13222.1 22319.8 13222.1 22319.8 13222.1 22319.7C13222 22319.7 13222 22319.7 13222 22319.7C13222 22319.7 13222 22319.7 13222 22319.7C13222 22319.7 13222 22319.7 13222 22319.7C13222 22319.7 13222 22319.7 13221.7 22320.1C13221.4 22320.5 13221.4 22320.5 13221.4 22320.5C13221.4 22320.5 13221.4 22320.5 13221.4 22320.5C13221.4 22320.5 13221.4 22320.5 13221.4 22320.5C13221.4 22320.5 13221.4 22320.5 13221.4 22320.5C13221.4 22320.5 13221.5 22320.6 13221.5 22320.6C13221.6 22320.7 13221.8 22320.8 13222 22321C13222.4 22321.3 13223 22321.8 13223.8 22322.4C13225.3 22323.7 13227.5 22325.6 13230.3 22327.9C13235.8 22332.5 13243.6 22338.9 13252.4 22346.3C13270 22361 13291.9 22379.3 13308.7 22393.9L13309.4 22393.1ZM13348.7 22423.4C13336.3 22414.5 13323.3 22405.1 13309.4 22393.1L13308.7 22393.9C13322.6 22405.9 13335.8 22415.3 13348.1 22424.2L13348.7 22423.4ZM13415.2 22487.7C13395.5 22456.9 13373.6 22441.2 13348.7 22423.4L13348.1 22424.2C13373 22442 13394.8 22457.6 13414.4 22488.3L13415.2 22487.7ZM13454 22634C13466.7 22577 13447.5 22538.2 13415.2 22487.7L13414.4 22488.3C13446.6 22538.7 13465.6 22577.2 13453 22633.8L13454 22634ZM13389.5 22730.6C13408.8 22718 13422.4 22704.8 13432.5 22689.3C13442.6 22673.8 13449 22656 13454 22634L13453 22633.8C13448.1 22655.7 13441.7 22673.4 13431.7 22688.8C13421.7 22704.1 13408.1 22717.2 13388.9 22729.8L13389.5 22730.6ZM13257.5 22746.8C13307 22753.5 13346.4 22758.9 13389.5 22730.6L13388.9 22729.8C13346.2 22757.8 13307.2 22752.5 13257.6 22745.8L13257.5 22746.8ZM13237.3 22744.1C13244.2 22745 13250.9 22745.9 13257.5 22746.8L13257.6 22745.8C13251.1 22744.9 13244.3 22744 13237.4 22743.2L13237.3 22744.1ZM13008.9 22623.7C13008.6 22624.1 13008.6 22624.1 13008.6 22624.1C13008.6 22624.1 13008.6 22624.1 13008.6 22624.1C13008.6 22624.1 13008.6 22624.1 13008.6 22624.1C13008.7 22624.1 13008.7 22624.1 13008.7 22624.2C13008.8 22624.2 13008.9 22624.3 13009 22624.4C13009.2 22624.6 13009.6 22624.9 13010.1 22625.3C13011 22626.1 13012.5 22627.3 13014.3 22628.7C13018 22631.7 13023.4 22636 13030.2 22641.1C13043.8 22651.4 13063 22665.2 13085.3 22679.4C13129.9 22707.9 13187.1 22737.9 13237.3 22744.1L13237.4 22743.2C13187.4 22737 13130.4 22707 13085.9 22678.6C13063.6 22664.4 13044.4 22650.6 13030.8 22640.3C13024.1 22635.2 13018.7 22630.9 13015 22628C13013.1 22626.5 13011.7 22625.3 13010.7 22624.5C13010.2 22624.1 13009.9 22623.8 13009.6 22623.6C13009.5 22623.5 13009.4 22623.5 13009.3 22623.4C13009.3 22623.4 13009.3 22623.4 13009.3 22623.3C13009.3 22623.3 13009.3 22623.3 13009.3 22623.3C13009.3 22623.3 13009.3 22623.3 13009.3 22623.3C13009.3 22623.3 13009.3 22623.3 13008.9 22623.7Z" fill="black"/>
<path fill-rule="evenodd" clip-rule="evenodd" d="M12268.7 30870.1L12713.6 31304.5C12713.6 31304.5 12911.8 31214.7 13022.4 31135.9C13082.5 31093.1 13126.3 31067.7 13164.7 31045.5C13229.4 31008.1 13278.8 30979.6 13365 30891.3C13410.6 30844.5 13457.8 30803.4 13504.2 30763C13594.7 30684.2 13682.2 30608.1 13749 30498C13854.2 30324.3 13923.2 30041.5 13791.1 29818.8C13763 29771.4 13757.1 29758.8 13747.4 29750.7C13737.2 29742.3 13723 29738.7 13674.9 29705.4C13490.6 29577.4 13344.9 29553.2 13158.6 29576.7C12998.1 29597 12927.2 29668.3 12830 29766.4C12818.6 29777.8 12806.9 29789.6 12794.6 29801.8C12668.3 29926.6 12612.5 30017.7 12555.6 30194.3C12532.4 30266.3 12534.7 30333.8 12537 30399.8C12539.6 30477 12542.1 30552.1 12503.6 30629.5C12443.9 30749.5 12268.7 30870.1 12268.7 30870.1ZM12160.3 30981.2L12594.4 31405C12594.4 31405 12511.7 31539.6 12422 31581.5C12330.3 31624.3 12261.7 31641.1 12146 31610.2C12142.7 31609.3 12139.4 31608.5 12136.2 31607.6C12057.8 31586.8 11997.7 31570.8 11940 31502.4C11874.7 31424.9 11879.5 31356.9 11885.3 31273.6C11885.6 31269.7 11885.8 31265.9 11886.1 31262C11897.6 31093.2 12160.3 30981.2 12160.3 30981.2Z" fill="black" fill-opacity="0.81"/>
<path fill-rule="evenodd" clip-rule="evenodd" d="M15342.3 27454.2L15736.9 27627.6C15736.9 27627.6 15854.6 27496 15914.3 27401.5C15946.9 27350.1 15971.8 27317 15993.6 27287.9C16030.3 27239.1 16058.3 27201.7 16099.4 27108.2C16121.2 27058.7 16145.2 27012.8 16168.8 26967.7C16214.7 26879.8 16259.2 26794.9 16282.4 26691.7C16319.1 26529 16308.4 26297.8 16172 26177.2C16143.2 26151.7 16136.4 26144.3 16128.1 26141.5C16119.4 26138.6 16109 26140.7 16069 26131.9C15916.1 26098.4 15811.2 26128.7 15688 26207.5C15581.9 26275.3 15547.9 26351.3 15501.2 26455.6C15495.8 26467.8 15490.1 26480.4 15484.2 26493.4C15423.1 26627 15403.5 26712.6 15400.6 26861.5C15399.5 26922.2 15414.9 26971.2 15430 27019.1C15447.6 27075.1 15464.8 27129.6 15454.2 27199.4C15437.8 27307.5 15342.3 27454.2 15342.3 27454.2ZM15290.6 27571.8L15675.6 27741C15675.6 27741 15646.5 27867.5 15593.5 27927.9C15539.3 27989.7 15495.6 28024.7 15409.8 28040.1C15407.4 28040.6 15405 28041 15402.6 28041.4C15344.5 28052 15299.9 28060 15246.2 28028.6C15185.5 27993 15174.8 27941.3 15161.7 27878C15161.1 27875.1 15160.5 27872.2 15159.9 27869.2C15133.2 27741 15290.6 27571.8 15290.6 27571.8Z" fill="black" fill-opacity="0.8"/>
<path fill-rule="evenodd" clip-rule="evenodd" d="M15114.9 23518.5L15388.3 23365.6C15388.3 23365.6 15363.6 23239.6 15335 23163.6C15319.4 23122.2 15311.1 23093.2 15303.8 23067.8C15291.5 23025.1 15282.2 22992.5 15245.9 22927.7C15226.7 22893.4 15210.6 22859.4 15194.8 22825.9C15163.9 22760.8 15134.1 22697.8 15084.4 22639.1C15006.1 22546.5 14867.4 22451.4 14737.7 22477.7C14710.2 22483.3 14703 22484 14697.7 22487.5C14692.2 22491.3 14688.8 22498.3 14666.2 22517.7C14579.8 22591.6 14551.4 22665.8 14543.1 22771.8C14536 22863 14565.2 22916 14605.3 22988.8C14609.9 22997.3 14614.8 23006.1 14619.7 23015.2C14670.5 23109.2 14711.5 23158.1 14796.7 23225C14831.3 23252.2 14866.5 23264.8 14900.9 23277C14941.2 23291.3 14980.3 23305.2 15016.1 23341.9C15071.7 23398.8 15114.9 23518.5 15114.9 23518.5ZM15160.5 23600L15427.3 23450.8C15427.3 23450.8 15487.9 23523.1 15499.8 23580.3C15511.9 23638.8 15513 23679.5 15484.4 23736C15483.6 23737.6 15482.8 23739.2 15482 23740.8C15462.6 23779.1 15447.8 23808.5 15406 23825.9C15358.8 23845.5 15324.1 23829.1 15281.7 23808.9C15279.7 23808 15277.7 23807 15275.8 23806.1C15189.7 23765.4 15160.5 23600 15160.5 23600Z" fill="black" fill-opacity="0.72"/>
<defs>
<filter id="filter0_d" x="11773" y="5694" width="7157" height="7087" filterUnits="userSpaceOnUse" color-interpolation-filters="sRGB">
<feFlood flood-opacity="0" result="BackgroundImageFix"/>
<feColorMatrix in="SourceAlpha" type="matrix" values="0 0 0 0 0 0 0 0 0 0 0 0 0 0 0 0 0 0 127 0"/>
<feOffset dy="4"/>
<feGaussianBlur stdDeviation="2"/>
<feColorMatrix type="matrix" values="0 0 0 0 0 0 0 0 0 0 0 0 0 0 0 0 0 0 0.25 0"/>
<feBlend mode="normal" in2="BackgroundImageFix" result="effect1_dropShadow"/>
<feBlend mode="normal" in="SourceGraphic" in2="effect1_dropShadow" result="shape"/>
</filter>
<linearGradient id="paint0_linear" x1="23377.3" y1="3225.9" x2="34531.5" y2="32214.3" gradientUnits="userSpaceOnUse">
<stop stop-color="#F0EFEE"/>
<stop offset="0.0001" stop-color="#EBCEB4" stop-opacity="0.58"/>
<stop offset="0.0002" stop-color="#FEEEDF" stop-opacity="0.56944"/>
<stop offset="0.119792" stop-color="#D38339" stop-opacity="0.495466"/>
<stop offset="1" stop-color="#C99E77" stop-opacity="0"/>
</linearGradient>
</defs>
</svg>
