<svg width="21971" height="32239" viewBox="0 0 21971 32239" fill="none" xmlns="http://www.w3.org/2000/svg">
<path d="M11170.1 15205.4C11512.8 14889.9 11924 14511.4 12334.1 14453.2C12433 14439.2 12461 14453.2 12461 14453.2C12461 14453.2 12018.3 15125.3 11642.1 15587C11283.8 16026.6 10985.7 16457.5 10917.1 17110.1C10867.2 17584 10656.8 17949.2 10917.1 18271.1C11823.6 19392.3 14132.6 20082.9 15472.7 20513.1C17091 21032.7 19008.1 22627.2 19863.7 24568.2C20323.1 25610.6 20085.1 25296 20207.3 26500.3C20454 28932.8 18046 32239 18046 32239H0C0 32239 1381.02 31048.3 2277.37 30310.7C5987.69 27257.8 14061.1 28217.2 11642.1 23318.9C10536.8 21080.6 7562.9 21629.4 8091.52 19030C8332.34 17845.8 9054.9 17110.1 9054.9 17110.1C9779.97 16144.5 10321.3 15986.7 11161.6 15213.2L11170.1 15205.4Z" fill="url(#paint0_linear)"/>
<g filter="url(#filter0_d)">
<path d="M15351.5 5694L18926 12773H11777L15351.5 5694Z" fill="#0285B4"/>
</g>
<path d="M13770 8616.09L15023.6 11916L15547 8157.52L15353.7 5699L14462.5 7462.59L13770 8616.09Z" fill="#007199" stroke="black"/>
<path d="M11776 997L17465.8 14470H6086.21L11776 997Z" fill="#434997"/>
<rect x="11764" y="3" width="54" height="982" fill="#C4C4C4"/>
<path d="M12668 264.5L11809.2 528.205L11809.2 0.795211L12668 264.5Z" fill="#DA0000"/>
<path d="M11028.9 5788.49L11785.6 1112.42L11750.6 1070L8088.23 9730.32L8070.73 9796.98L7825 10358.5C8657.79 11766.4 10323.4 14554.3 10323.4 14442.8C10323.4 14331.3 12032.9 14396.3 12887.7 14442.8L13769 12894.5L13878 12349.1L13942 12126.9L10814.8 9127.38L12141.8 7779.1L11028.9 5788.49Z" fill="#2B317D" stroke="black"/>
<path d="M4884.04 11685.1L5947.15 10063.2L6380.2 9319.73C6380.2 9319.73 6617.57 8812.34 6813.25 8576.24C6982.09 8372.54 7079.62 8181.57 7285.87 8170.53C7505.95 8158.75 7623.73 8344.71 7797.79 8576.24C8033.68 8890.04 8040.68 9262.24 8230.55 9657.5C8438.05 10089.4 8594.51 10268.5 8821.05 10671.3C9040.18 11060.9 9136 11326.2 9372.25 11685.1C9653.4 12112.2 10159.8 12631.4 10159.8 12631.4C10159.8 12631.4 10526.5 13207.7 10790.1 13510.3C11093.2 13858.2 11616.9 14254.3 11616.9 14254.3L12286 14660H1931L3623.9 13104.6L4884.04 11685.1Z" fill="#295FA6" stroke="black"/>
<path d="M5927.15 11718.2L7318 8194.25V8170H7236.82L7155.65 8194.25L7002.88 8307.4L6725.48 8670.1L6513.27 9042.89L6302.34 9448.02L5927.15 10073.4L5462.46 10774.5L4852.05 11718.2L3512.97 13199.2L1931 14647H6302.34L5927.15 11718.2Z" fill="#1C529A" stroke="black"/>
<path fill-rule="evenodd" clip-rule="evenodd" d="M11504.5 14569.1L11514.9 14553.6C11527.6 14544.6 11551.5 14536.3 11586 14528.8L11534.2 14660H21926.7H21957.8L21956.2 14658.6C21961.2 14658.7 21966.1 14658.8 21971 14659L21665 14330.8L21204.9 13928.8L20678.8 13175.4L20161.9 12406.9L19645 11638.3L19294.1 11288.9L18812.9 11076.8L18311.9 10965.8H18029H17669.4L17342.9 11076.8L16931.7 11367.7L16076.4 12070.6L15452.5 12774.5L15090.3 13175.4L14755.2 12774.5L14379.7 12498.8L14005.6 12372.6H13348.6L12855.5 12774.5L12427.9 13175.4L11934.8 13928.8L11674.1 14316.7L11669.8 14316.6L11663.6 14332.3L11514.9 14553.6C11508 14558.5 11504.5 14563.7 11504.5 14569.1Z" fill="#3EC9BB"/>
<path d="M11521.3 14552L12435.2 13194.7L12484.8 13129.1L12573.4 13045.3L12732.7 12899L12723.5 12918.2L12653.4 13061.5L12591.2 13272.4L12573.4 13434.9V13656.9L12919.2 14099.9L13388.1 14423.9L14292 14659H11436L11453.2 14636.8L11521.3 14552Z" fill="#13B8A8"/>
<path d="M12509.2 13129.1L12435.2 13194.7M12435.2 13194.7L11521.3 14552L11453.2 14636.8L11436 14659H14292L13388.1 14423.9L12919.2 14099.9L12573.4 13656.9V13434.9L12591.2 13272.4L12653.4 13061.5L12723.5 12918.2L12732.7 12899L12573.4 13045.3L12484.8 13129.1L12435.2 13194.7Z" stroke="black"/>
<path d="M15915.8 13892.3C15578.6 13639.2 15100 13173.4 15100 13173.4L15608.9 12622.9L16071.6 12102.8L16534.9 11704.9L16997.5 11329.2L17156.8 11208C17156.8 11208 17051.6 11505.2 16997.5 11704.9C16935.4 11934.1 16891.1 12062.6 16866.7 12307.8C16844.8 12527.4 16838.4 12658.6 16866.7 12876.4C16911.8 13223.4 16995.1 13413.2 17156.8 13666.2C17442.2 14112.7 18148.9 14172.2 18148.9 14172.2C18379.3 14264.1 18744.4 14372.2 18744.4 14372.2C18991.3 14446.2 19379.5 14538.8 19379.5 14538.8L19588.4 14623.6L19669 14656L17222.9 14660C16685.9 14422.8 16393.7 14251.2 15915.8 13892.3Z" fill="#13B8A8"/>
<path d="M11817.3 985H11765.8L10977 2861.81L11466.6 2602.83L11817.3 3073L12102.7 2458.7L12554 2746.2L11817.3 985Z" fill="white"/>
<path d="M15360.6 5694H15313.2L14589 7146L15040.2 6634.8L15499.6 6959.49L15568.9 6634.8L16037 7056.55L15360.6 5694Z" fill="white"/>
<path d="M7052.39 8241.08L7276.19 8115H7330.54L7460.34 8194.68L7580.55 8280.41L7794.12 8546.69L7917.53 8750.43L8010.89 8992.49L8122.79 9378.79L8243 9672.3L8211.67 9643.05L7863.18 9378.79L7398.32 9989L6772.96 9643.05L6494.81 9806.44L5966 9989L6407.84 9235.57L6597.11 8891.63L6772.96 8593.08L7052.39 8241.08Z" fill="white"/>
<path d="M17270.5 11128.5L16902 11389.9C16902 11389.9 17170.1 11370.7 17341.2 11389.9C17572.8 11416 17733 11351.4 17927 11546.4C18053 11672.9 18060.4 11854.5 18183.9 11986.4C18435.3 12255 18666.8 12253.5 18963.3 12133.8C19061.1 12094.3 19203.7 11986.4 19203.7 11986.4C19203.7 11986.4 19323.6 11716.4 19443.4 11660.4C19527.3 11621.3 19668 11660.4 19668 11660.4L19333.1 11326.4L19203.7 11230.5L18839.8 11077.1L18308.1 10962H17927H17680.7L17555.2 10994.3L17341.2 11077.1L17270.5 11128.5Z" fill="white" stroke="white"/>
<path d="M12892 12754.1L13170.6 12481.6L13224 12427.9L13385.8 12341.7L13480.7 12308H13666.9H13955L14356.9 12427.9L14632 12587.9L14729.9 12687.8L14983 13036.1C14983 13036.1 14876.6 12995.3 14813.2 13036.1C14722.6 13094.4 14617.5 13036.1 14617.5 13036.1C14617.5 13036.1 14205.7 12712.9 14131.8 12754.1C13976.7 12840.5 13815.5 12951.2 13667.9 12918.6C13697.1 12959.3 13679.1 12945.4 13644 12911.9C13586.9 12892.9 13532.1 12850.5 13480.7 12774.8C13402.7 12755 13321.8 12769.3 13224 12754.1C13094.7 12734.1 12892 12754.1 12892 12754.1Z" fill="white" stroke="white"/>
<defs>
<filter id="filter0_d" x="11773" y="5694" width="7157" height="7087" filterUnits="userSpaceOnUse" color-interpolation-filters="sRGB">
<feFlood flood-opacity="0" result="BackgroundImageFix"/>
<feColorMatrix in="SourceAlpha" type="matrix" values="0 0 0 0 0 0 0 0 0 0 0 0 0 0 0 0 0 0 127 0"/>
<feOffset dy="4"/>
<feGaussianBlur stdDeviation="2"/>
<feColorMatrix type="matrix" values="0 0 0 0 0 0 0 0 0 0 0 0 0 0 0 0 0 0 0.25 0"/>
<feBlend mode="normal" in2="BackgroundImageFix" result="effect1_dropShadow"/>
<feBlend mode="normal" in="SourceGraphic" in2="effect1_dropShadow" result="shape"/>
</filter>
<linearGradient id="paint0_linear" x1="23377.3" y1="3225.9" x2="34531.5" y2="32214.3" gradientUnits="userSpaceOnUse">
<stop stop-color="#F0EFEE"/>
<stop offset="0.0001" stop-color="#EBCEB4" stop-opacity="0.58"/>
<stop offset="0.0002" stop-color="#FEEEDF" stop-opacity="0.56944"/>
<stop offset="0.119792" stop-color="#D38339" stop-opacity="0.495466"/>
<stop offset="1" stop-color="#C99E77" stop-opacity="0"/>
</linearGradient>
</defs>
</svg>
